<?xml version="1.0" encoding="UTF-8" standalone="no"?>
<!-- Created with Inkscape (http://www.inkscape.org/) -->

<svg
   xmlns:dc="http://purl.org/dc/elements/1.1/"
   xmlns:cc="http://creativecommons.org/ns#"
   xmlns:rdf="http://www.w3.org/1999/02/22-rdf-syntax-ns#"
   xmlns:svg="http://www.w3.org/2000/svg"
   xmlns="http://www.w3.org/2000/svg"
   xmlns:sodipodi="http://sodipodi.sourceforge.net/DTD/sodipodi-0.dtd"
   xmlns:inkscape="http://www.inkscape.org/namespaces/inkscape"
   id="svg3039"
   version="1.1"
   inkscape:version="0.48.4 r9939"
   width="155.45868"
   height="36.15522"
   sodipodi:docname="banner.svg"
   inkscape:export-filename="/home/jonathan/dev/artwork/kaheim/banner.png"
   inkscape:export-xdpi="300"
   inkscape:export-ydpi="300">
  <title
     id="title4102">Kaheim Banner</title>
  <metadata
     id="metadata3045">
    <rdf:RDF>
      <cc:Work
         rdf:about="">
        <dc:format>image/svg+xml</dc:format>
        <dc:type
           rdf:resource="http://purl.org/dc/dcmitype/StillImage" />
        <dc:title>Kaheim Banner</dc:title>
        <cc:license
           rdf:resource="copyright.txt" />
        <dc:creator>
          <cc:Agent>
            <dc:title>Jonathan Kieling</dc:title>
          </cc:Agent>
        </dc:creator>
        <dc:language>German</dc:language>
        <dc:subject>
          <rdf:Bag>
            <rdf:li>daheim</rdf:li>
            <rdf:li>kaheim</rdf:li>
            <rdf:li>banner</rdf:li>
          </rdf:Bag>
        </dc:subject>
        <dc:contributor>
          <cc:Agent>
            <dc:title>Miram Frank, Jonathan Kieling</dc:title>
          </cc:Agent>
        </dc:contributor>
      </cc:Work>
    </rdf:RDF>
  </metadata>
  <defs
     id="defs3043" />
  <sodipodi:namedview
     pagecolor="#ffffff"
     bordercolor="#666666"
     borderopacity="1"
     objecttolerance="10"
     gridtolerance="10"
     guidetolerance="10"
     inkscape:pageopacity="0"
     inkscape:pageshadow="2"
     inkscape:window-width="1920"
     inkscape:window-height="1014"
     id="namedview3041"
     showgrid="false"
     inkscape:zoom="3.0758949"
     inkscape:cx="5.0690551"
     inkscape:cy="13.699546"
     inkscape:window-x="0"
     inkscape:window-y="27"
     inkscape:window-maximized="1"
     inkscape:current-layer="svg3039"
     showguides="true"
     inkscape:guide-bbox="true"
     inkscape:object-paths="true"
     inkscape:snap-nodes="true"
     inkscape:snap-bbox="true"
     inkscape:bbox-paths="false"
     inkscape:bbox-nodes="false"
     inkscape:snap-bbox-edge-midpoints="true"
     fit-margin-top="0"
     fit-margin-left="0"
     fit-margin-right="0"
     fit-margin-bottom="0">
    <sodipodi:guide
       orientation="1,0"
       position="0.087403986,88.816463"
       id="guide3918" />
    <sodipodi:guide
       orientation="0,1"
       position="8.1671246,59.926443"
       id="guide4094" />
    <sodipodi:guide
       orientation="0,1"
       position="7.4262936,0.0018725269"
       id="guide4096" />
    <sodipodi:guide
       orientation="0,1"
       position="8.1996916,-56.316842"
       id="guide4098" />
    <sodipodi:guide
       orientation="0,1"
       position="7.8351606,-116.72088"
       id="guide4100" />
  </sodipodi:namedview>
  <g
     id="g4027"
     transform="matrix(0.9477868,0,0,0.9477868,-3.9846771,-73.52326)">
    <path
       inkscape:connector-curvature="0"
       id="path3055-5"
       d="m 12.086405,115.71902 c -1.764333,-0.0134 -4.1564927,-0.0954 -5.3159117,-0.18237 -1.1594184,-0.0869 -2.211144,-0.19644 -2.3371677,-0.24337 -0.1812195,-0.0675 -0.2291342,-3.93423 -0.2291342,-18.49119 l 0,-18.405861 1.3289779,-0.19762 c 0.7309379,-0.1087 2.308348,-0.29324 3.505355,-0.4101 1.3250087,-0.12936 3.7989097,-0.17558 6.3241017,-0.11814 3.279461,0.0746 4.522254,0.17583 5.936864,0.48362 0.984026,0.21411 2.478523,0.63873 3.321104,0.94361 0.842582,0.30489 2.183894,0.95554 2.980696,1.44589 0.796802,0.49036 1.990685,1.42034 2.653071,2.06662 0.662385,0.64629 1.556796,1.69408 1.987579,2.32844 0.430781,0.63436 1.020695,1.67707 1.310917,2.31714 0.290221,0.64007 0.699068,1.78849 0.908548,2.55205 0.351981,1.282991 0.375895,1.773651 0.315268,6.468641 -0.06455,4.99863 -0.07392,5.10541 -0.582844,6.63846 -0.284484,0.85696 -0.8588,2.24819 -1.276259,3.09162 -0.417458,0.84343 -1.295188,2.19993 -1.950512,3.01444 -0.655324,0.81452 -1.754546,1.90818 -2.442717,2.43036 -0.68817,0.52218 -1.925494,1.28587 -2.749609,1.69709 -0.824115,0.41122 -2.12139,0.94902 -2.882834,1.19512 -0.761443,0.24609 -2.040013,0.5789 -2.841263,0.73956 -0.801252,0.16066 -2.199215,0.37496 -3.106586,0.47621 -0.907372,0.10126 -3.093311,0.17316 -4.857644,0.15978 z m 0.916537,-0.6182 c 3.994041,-0.0449 5.168393,-0.11954 6.605572,-0.42002 0.961362,-0.20099 2.404908,-0.58589 3.207878,-0.85534 0.802972,-0.26944 1.954879,-0.74818 2.559793,-1.06387 0.604914,-0.31569 1.55353,-0.87703 2.108034,-1.24743 0.554505,-0.37039 1.480194,-1.15757 2.057088,-1.74929 0.576891,-0.59171 1.263031,-1.36456 1.52475,-1.71742 0.26172,-0.35287 0.76695,-1.15873 1.122735,-1.79081 0.355783,-0.63208 0.919079,-1.91082 1.251765,-2.84164 0.332688,-0.93082 0.747489,-2.54522 0.921781,-3.587553 0.247883,-1.482457 0.29632,-2.560157 0.222429,-4.948927 -0.06996,-2.2615 -0.19376,-3.43423 -0.477199,-4.520231 -0.210504,-0.80655 -0.814551,-2.33258 -1.342328,-3.39118 -0.837008,-1.67886 -1.182922,-2.14766 -2.707865,-3.66984 -1.023637,-1.02178 -2.242132,-2.02994 -2.93977,-2.4323 -0.655324,-0.37796 -1.846143,-0.94005 -2.646267,-1.24908 -0.800123,-0.30904 -2.16118,-0.71728 -3.02457,-0.9072 -0.863391,-0.18993 -2.769134,-0.44316 -4.234983,-0.56275 -2.006797,-0.16372 -3.433202,-0.16712 -5.77418,-0.0138 -1.7099497,0.11201 -3.9132597,0.30293 -4.8962455,0.42427 l -1.7872462,0.22062 0,18.013191 0,18.0132 0.9623633,0.10555 c 0.5292998,0.0581 1.2923167,0.13725 1.6955927,0.17599 0.403276,0.0387 2.9191687,0.0459 5.5908727,0.0159 z m 1.374804,-3.30993 c -1.613104,0.0381 -3.46909,0.0156 -4.124414,-0.0499 l -1.1914977,-0.11908 -0.04846,-5.62544 -0.04846,-5.62544 1.4232647,-1.64787 c 0.782795,-0.90632 1.525807,-1.65378 1.651137,-1.66102 0.12533,-0.007 2.208159,2.95557 4.628509,6.58401 2.42035,3.62845 4.400637,6.71536 4.400637,6.85981 0,0.14445 -0.271418,0.35221 -0.603149,0.46169 -0.331733,0.10948 -1.177238,0.32392 -1.8789,0.47653 -0.72213,0.15707 -2.548511,0.30751 -4.208668,0.34668 z m -1.250588,-0.47138 c 1.429376,0.0151 3.244118,-0.0588 4.032761,-0.16431 0.788642,-0.10547 1.866167,-0.31377 2.394499,-0.46287 l 0.960603,-0.27111 -4.231397,-6.34313 c -4.106028,-6.15521 -4.241198,-6.33294 -4.562194,-5.99871 -0.181939,0.18944 -0.751667,0.83158 -1.266062,1.42697 l -0.9352647,1.08254 0,5.27522 0,5.27521 0.5040947,0.0764 c 0.277252,0.042 1.673584,0.0887 3.10296,0.10383 z m 11.332185,-2.35553 c -0.137886,0 -1.190953,-1.38167 -2.340151,-3.07039 -1.1492,-1.68872 -3.299285,-4.85676 -4.777969,-7.04009 -1.478683,-2.18333 -2.688516,-4.066 -2.688516,-4.1837 0,-0.11771 2.071545,-2.64136 4.603434,-5.608121 2.53189,-2.96676 4.724031,-5.3941 4.871428,-5.3941 0.147396,0 0.721336,0.35057 1.275421,0.77905 0.554087,0.42848 1.38465,1.27399 1.845696,1.8789 0.461047,0.60492 1.119467,1.68781 1.463155,2.40643 0.34369,0.71863 0.784409,2.07969 0.979378,3.024581 0.243894,1.18201 0.355237,2.46822 0.356894,4.12279 0.0013,1.32663 -0.120884,3.11182 -0.272587,3.981747 -0.151247,0.867313 -0.516998,2.240043 -0.812781,3.050513 -0.295783,0.81046 -0.850432,1.98825 -1.232555,2.61731 -0.382124,0.62906 -1.21798,1.65929 -1.857458,2.28941 -0.639479,0.63012 -1.275504,1.14567 -1.413389,1.14567 z m 1.285035,-1.87563 c 0.763338,-0.79157 1.5588,-1.85576 1.960054,-2.62222 0.371428,-0.70949 0.885277,-2.01448 1.141887,-2.89998 0.256608,-0.88551 0.55255,-2.52186 0.65765,-3.63633 0.105099,-1.11448 0.139676,-2.65533 0.07684,-3.42412 -0.06283,-0.76879 -0.274774,-2.09895 -0.470971,-2.95591 -0.196199,-0.856961 -0.660216,-2.176771 -1.031149,-2.932921 -0.502827,-1.02501 -1.061104,-1.76333 -2.194194,-2.90182 -0.835874,-0.83986 -1.592198,-1.49976 -1.680723,-1.46646 -0.08852,0.0333 -2.153839,2.39296 -4.589592,5.24367 l -4.428642,5.183101 1.887447,2.79528 c 1.038095,1.53741 3.12477,4.63008 4.637056,6.87262 l 2.74961,4.07733 1.284729,-1.33224 z M 9.2301743,96.49909 c -0.226428,0 -0.257347,-1.03985 -0.21627,-7.273321 l 0.04793,-7.27332 0.549922,-0.15055 c 0.3024579,-0.0828 1.6222697,-0.22809 2.9329167,-0.32285 1.461528,-0.10568 3.124886,-0.10736 4.301589,-0.004 1.055227,0.0924 2.354417,0.26549 2.88709,0.3847 0.532672,0.11921 0.968496,0.31433 0.968496,0.43361 0,0.11928 -1.945446,2.60142 -4.323213,5.51588 -2.377768,2.91445 -4.899449,6.062021 -5.603737,6.994601 -0.704288,0.93257 -1.3994137,1.69559 -1.5447237,1.69559 z m 0.348193,-1.09985 c 0.03459,0 0.3192199,-0.35692 0.6325067,-0.79317 0.313287,-0.43624 2.647357,-3.34395 5.186823,-6.461581 l 4.617211,-5.66841 -0.985508,-0.24852 c -0.649771,-0.16385 -2.140796,-0.24973 -4.376693,-0.25209 -1.865151,-0.002 -3.762382,0.0709 -4.216068,0.16189 l -0.8248827,0.16547 -0.04814,6.5482 c -0.02648,3.601521 -0.01984,6.548211 0.01475,6.548211 z"
       style="fill:#000000;fill-opacity:1" />
    <path
       inkscape:connector-curvature="0"
       id="path3825-34"
       d="m 8.1120443,115.05122 c -1.08028,-0.0321 -2.7489031,-0.1709 -3.1858361,-0.265 l -0.1346128,-0.029 0,-17.97715 c 0,-9.887431 0.00844,-17.977141 0.018761,-17.977141 0.010318,0 0.3183056,-0.0395 0.6844159,-0.0878 1.943249,-0.2563 5.4672657,-0.54762 7.5258697,-0.62214 2.266891,-0.0821 5.123281,0.10068 7.445864,0.47638 1.373093,0.22211 3.246352,0.76331 4.487094,1.29637 0.891053,0.38282 2.12623,1.00781 2.512743,1.27143 1.400523,0.95523 3.612278,3.12232 4.395398,4.30665 0.637592,0.96425 1.468892,2.72722 1.974133,4.18662 0.494193,1.427481 0.659879,2.774971 0.72845,5.924301 0.02343,1.07626 0.01225,2.014 -0.03036,2.54269 -0.313626,3.89258 -1.857611,7.98249 -3.952247,10.46923 -2.565662,3.04595 -5.627409,4.80535 -10.296723,5.91691 -1.873451,0.44598 -2.763768,0.51727 -6.878182,0.55072 -1.793341,0.0146 -3.4356168,0.0327 -3.6495018,0.0404 -0.2138839,0.008 -0.9542549,-0.003 -1.6452669,-0.0235 z m 7.5383157,-3.28558 c 1.475383,-0.0805 2.520525,-0.20155 3.353525,-0.38838 1.47329,-0.33043 2.059612,-0.57022 2.060492,-0.84268 7.51e-4,-0.23384 -0.920155,-1.6904 -4.099671,-6.48427 -2.431899,-3.66666 -4.480873,-6.61058 -4.802355,-6.89993 -0.0925,-0.0833 -0.148726,-0.095 -0.23479,-0.0489 -0.175051,0.0937 -1.224692,1.2041 -2.1583068,2.28326 l -0.8443849,0.97603 0.02869,2.93663 c 0.01578,1.61515 0.0447,4.15334 0.06427,5.64042 l 0.03558,2.70379 0.307082,0.0378 c 1.2216457,0.15037 4.3330737,0.19303 6.2898727,0.0862 l 0,0 z m 9.830384,-3.5493 c 1.229286,-1.117 2.126084,-2.29131 2.793126,-3.65745 1.296009,-2.6543 1.771552,-4.959613 1.777174,-8.61526 0.0043,-2.80301 -0.252808,-4.46038 -1.004005,-6.471771 -0.269191,-0.72078 -0.495783,-1.17441 -1.003637,-2.00928 -0.581334,-0.95566 -1.002695,-1.49309 -1.770758,-2.25854 -0.71068,-0.70827 -1.857766,-1.55504 -2.106544,-1.55504 -0.145135,0 -0.492354,0.35027 -1.897826,1.91449 -2.373735,2.64186 -7.340745,8.540111 -7.600522,9.025511 -0.07453,0.13926 0.335402,0.82188 1.909295,3.17938 1.056411,1.58238 4.984468,7.38139 5.795144,8.55539 0.619703,0.89745 1.543675,2.13407 1.812114,2.42529 l 0.245531,0.26637 0.224769,-0.12633 c 0.123623,-0.0695 0.495386,-0.37222 0.826139,-0.67276 l 0,0 z M 9.6690653,96.16799 c 0.1845489,-0.18921 0.9859987,-1.16515 1.7809997,-2.16876 0.795001,-1.00362 2.295315,-2.87474 3.334031,-4.158041 4.296741,-5.30853 5.921722,-7.37807 5.921722,-7.54179 0,-0.2799 -0.948298,-0.51916 -3.111051,-0.78493 -1.208342,-0.14848 -4.431893,-0.14727 -5.922963,0.002 -1.163173,0.11662 -2.0714297,0.24431 -2.4009227,0.33752 l -0.217205,0.0615 -0.04312,3.48414 c -0.02371,1.91628 -0.03249,5.12641 -0.01951,7.133641 0.02411,3.72699 0.04016,3.97856 0.25374,3.97856 0.0488,0 0.23972,-0.15481 0.424269,-0.34401 z"
       style="fill:#000000;fill-opacity:1;stroke:#000000;stroke-width:1;stroke-linecap:butt;stroke-linejoin:miter;stroke-miterlimit:4;stroke-dasharray:none" />
    <path
       sodipodi:nodetypes="cccccccccc"
       inkscape:connector-curvature="0"
       id="path3965"
       d="m 10.376022,94.67562 10.428469,-13.142981 4.879509,1.99577 -9.281825,11.037241 9.640458,13.73296 -4.28449,2.25771 -4.486471,-6.64601 -4.482247,-6.20635 -2.455689,2.94266 z"
       style="fill:#000000;fill-opacity:1;stroke:#000000;stroke-width:2;stroke-linecap:butt;stroke-linejoin:miter;stroke-miterlimit:4;stroke-opacity:1;stroke-dasharray:none" />
    <text
       sodipodi:linespacing="125%"
       id="text3953-5"
       y="115.08356"
       x="35.990021"
       style="font-size:48px;font-style:normal;font-weight:normal;line-height:125%;letter-spacing:0px;word-spacing:0px;fill:#000000;fill-opacity:1;stroke:none;font-family:Sans"
       xml:space="preserve"><tspan
         style="font-size:48px;font-style:normal;font-variant:normal;font-weight:500;font-stretch:normal;letter-spacing:0px;font-family:Ubuntu;-inkscape-font-specification:Ubuntu Medium"
         y="115.08356"
         x="35.990021"
         id="tspan3955-0"
         sodipodi:role="line">aheim</tspan></text>
  </g>
</svg>
