<?xml version="1.0" encoding="UTF-8"?>
<svg xmlns="http://www.w3.org/2000/svg" xmlns:xlink="http://www.w3.org/1999/xlink" width="86pt" height="20pt" viewBox="0 0 86 20" version="1.1">
<g id="surface1">
<path style=" stroke:none;fill-rule:nonzero;fill:rgb(67.45098%,67.45098%,67.45098%);fill-opacity:1;" d="M 23.304688 17.601562 C 24.246094 17.601562 24.960938 17.550781 25.449219 17.449219 L 25.449219 14.0625 C 25.28125 14.011719 25.035156 13.964844 24.714844 13.914062 C 24.398438 13.863281 24.042969 13.835938 23.65625 13.835938 C 23.320312 13.835938 22.976562 13.863281 22.621094 13.914062 C 22.285156 13.964844 21.972656 14.054688 21.6875 14.191406 C 21.417969 14.324219 21.199219 14.519531 21.03125 14.773438 C 20.863281 15.007812 20.777344 15.3125 20.777344 15.679688 C 20.777344 16.40625 21.007812 16.910156 21.460938 17.199219 C 21.914062 17.46875 22.527344 17.601562 23.304688 17.601562 M 23.050781 6.203125 C 24.058594 6.203125 24.910156 6.332031 25.601562 6.582031 C 26.289062 6.835938 26.835938 7.191406 27.242188 7.644531 C 27.660156 8.097656 27.957031 8.65625 28.125 9.3125 C 28.308594 9.953125 28.402344 10.660156 28.402344 11.433594 L 28.402344 19.449219 C 27.929688 19.546875 27.214844 19.667969 26.257812 19.800781 C 25.3125 19.953125 24.246094 20.027344 23.050781 20.027344 C 22.261719 20.027344 21.535156 19.953125 20.878906 19.800781 C 20.222656 19.648438 19.660156 19.40625 19.1875 19.070312 C 18.734375 18.730469 18.371094 18.292969 18.101562 17.753906 C 17.851562 17.214844 17.726562 16.550781 17.726562 15.757812 C 17.726562 15 17.867188 14.359375 18.152344 13.835938 C 18.457031 13.3125 18.859375 12.894531 19.367188 12.574219 C 19.871094 12.234375 20.449219 12 21.105469 11.863281 C 21.78125 11.714844 22.480469 11.636719 23.203125 11.636719 C 23.539062 11.636719 23.890625 11.664062 24.261719 11.714844 C 24.632812 11.746094 25.027344 11.816406 25.449219 11.914062 L 25.449219 11.410156 C 25.449219 11.054688 25.40625 10.71875 25.324219 10.398438 C 25.238281 10.078125 25.085938 9.800781 24.867188 9.566406 C 24.667969 9.3125 24.386719 9.117188 24.035156 8.984375 C 23.699219 8.847656 23.269531 8.78125 22.746094 8.78125 C 22.042969 8.78125 21.394531 8.832031 20.804688 8.933594 C 20.214844 9.035156 19.734375 9.152344 19.367188 9.289062 L 18.988281 6.808594 C 19.375 6.675781 19.9375 6.539062 20.679688 6.40625 C 21.417969 6.269531 22.210938 6.203125 23.050781 6.203125 "/>
<path style=" stroke:none;fill-rule:nonzero;fill:rgb(67.45098%,67.45098%,67.45098%);fill-opacity:1;" d="M 32.117188 19.75 L 32.117188 0.644531 L 35.171875 0.136719 L 35.171875 6.683594 C 35.507812 6.566406 35.894531 6.464844 36.332031 6.378906 C 36.789062 6.296875 37.234375 6.253906 37.671875 6.253906 C 38.730469 6.253906 39.605469 6.40625 40.296875 6.710938 C 41.003906 6.996094 41.566406 7.410156 41.988281 7.949219 C 42.40625 8.46875 42.703125 9.101562 42.871094 9.84375 C 43.054688 10.585938 43.148438 11.410156 43.148438 12.320312 L 43.148438 19.75 L 40.09375 19.75 L 40.09375 12.800781 C 40.09375 12.09375 40.042969 11.496094 39.941406 11.007812 C 39.859375 10.5 39.707031 10.097656 39.488281 9.792969 C 39.285156 9.472656 39.007812 9.246094 38.65625 9.109375 C 38.300781 8.957031 37.863281 8.882812 37.34375 8.882812 C 36.9375 8.882812 36.527344 8.925781 36.105469 9.007812 C 35.683594 9.09375 35.375 9.167969 35.171875 9.238281 L 35.171875 19.75 L 32.117188 19.75 "/>
<path style=" stroke:none;fill-rule:nonzero;fill:rgb(67.45098%,67.45098%,67.45098%);fill-opacity:1;" d="M 46.078125 13.203125 C 46.078125 12.042969 46.246094 11.023438 46.582031 10.148438 C 46.933594 9.269531 47.398438 8.546875 47.96875 7.972656 C 48.542969 7.382812 49.199219 6.945312 49.9375 6.660156 C 50.679688 6.355469 51.4375 6.203125 52.210938 6.203125 C 54.027344 6.203125 55.441406 6.769531 56.453125 7.898438 C 57.476562 9.027344 57.992188 10.710938 57.992188 12.953125 C 57.992188 13.121094 57.984375 13.3125 57.964844 13.535156 C 57.964844 13.734375 57.957031 13.921875 57.941406 14.089844 L 49.230469 14.089844 C 49.316406 15.152344 49.6875 15.976562 50.34375 16.566406 C 51.015625 17.140625 51.984375 17.425781 53.246094 17.425781 C 53.984375 17.425781 54.660156 17.359375 55.265625 17.222656 C 55.886719 17.089844 56.375 16.945312 56.730469 16.792969 L 57.132812 19.296875 C 56.964844 19.378906 56.730469 19.472656 56.425781 19.574219 C 56.140625 19.65625 55.804688 19.734375 55.417969 19.800781 C 55.046875 19.886719 54.640625 19.953125 54.203125 20.003906 C 53.765625 20.054688 53.320312 20.078125 52.867188 20.078125 C 51.707031 20.078125 50.695312 19.910156 49.839844 19.574219 C 48.980469 19.21875 48.273438 18.738281 47.71875 18.132812 C 47.164062 17.511719 46.75 16.785156 46.480469 15.960938 C 46.210938 15.117188 46.078125 14.199219 46.078125 13.203125 M 54.9375 11.839844 C 54.9375 11.417969 54.878906 11.023438 54.761719 10.652344 C 54.640625 10.265625 54.464844 9.9375 54.230469 9.667969 C 54.011719 9.378906 53.734375 9.160156 53.398438 9.007812 C 53.078125 8.839844 52.691406 8.757812 52.234375 8.757812 C 51.765625 8.757812 51.351562 8.847656 51 9.035156 C 50.644531 9.203125 50.34375 9.429688 50.089844 9.71875 C 49.855469 10.003906 49.667969 10.332031 49.535156 10.703125 C 49.402344 11.074219 49.308594 11.453125 49.257812 11.839844 L 54.9375 11.839844 "/>
<path style=" stroke:none;fill-rule:nonzero;fill:rgb(67.45098%,67.45098%,67.45098%);fill-opacity:1;" d="M 64.285156 19.75 L 61.230469 19.75 L 61.230469 6.53125 L 64.285156 6.53125 L 64.285156 19.75 M 64.613281 2.664062 C 64.613281 3.238281 64.425781 3.691406 64.058594 4.03125 C 63.6875 4.367188 63.25 4.535156 62.746094 4.535156 C 62.222656 4.535156 61.777344 4.367188 61.40625 4.03125 C 61.035156 3.691406 60.851562 3.238281 60.851562 2.664062 C 60.851562 2.074219 61.035156 1.613281 61.40625 1.273438 C 61.777344 0.9375 62.222656 0.769531 62.746094 0.769531 C 63.25 0.769531 63.6875 0.9375 64.058594 1.273438 C 64.425781 1.613281 64.613281 2.074219 64.613281 2.664062 "/>
<path style=" stroke:none;fill-rule:nonzero;fill:rgb(67.45098%,67.45098%,67.45098%);fill-opacity:1;" d="M 75.679688 12.800781 C 75.679688 11.417969 75.5 10.425781 75.148438 9.816406 C 74.8125 9.195312 74.171875 8.882812 73.230469 8.882812 C 72.894531 8.882812 72.523438 8.90625 72.117188 8.957031 C 71.714844 9.007812 71.414062 9.050781 71.210938 9.085938 L 71.210938 19.75 L 68.15625 19.75 L 68.15625 6.960938 C 68.746094 6.792969 69.511719 6.632812 70.453125 6.480469 C 71.414062 6.332031 72.421875 6.253906 73.480469 6.253906 C 74.390625 6.253906 75.132812 6.371094 75.703125 6.609375 C 76.292969 6.84375 76.78125 7.15625 77.167969 7.542969 C 77.351562 7.410156 77.589844 7.265625 77.875 7.113281 C 78.160156 6.960938 78.480469 6.828125 78.832031 6.710938 C 79.1875 6.574219 79.558594 6.464844 79.945312 6.378906 C 80.347656 6.296875 80.75 6.253906 81.15625 6.253906 C 82.183594 6.253906 83.023438 6.40625 83.679688 6.710938 C 84.351562 6.996094 84.875 7.410156 85.246094 7.949219 C 85.632812 8.46875 85.894531 9.109375 86.027344 9.867188 C 86.179688 10.609375 86.253906 11.425781 86.253906 12.320312 L 86.253906 19.75 L 83.199219 19.75 L 83.199219 12.800781 C 83.199219 11.417969 83.03125 10.425781 82.695312 9.816406 C 82.359375 9.195312 81.710938 8.882812 80.75 8.882812 C 80.265625 8.882812 79.800781 8.96875 79.363281 9.136719 C 78.925781 9.289062 78.597656 9.4375 78.378906 9.589844 C 78.515625 10.011719 78.605469 10.457031 78.65625 10.929688 C 78.707031 11.402344 78.734375 11.90625 78.734375 12.445312 L 78.734375 19.75 L 75.679688 19.75 L 75.679688 12.800781 "/>
<path style=" stroke:none;fill-rule:nonzero;fill:rgb(46.666667%,46.666667%,46.666667%);fill-opacity:1;" d="M 2.71875 10.042969 L 3.851562 0 L 5.839844 0.0429688 Z M 2.71875 10.042969 "/>
<path style=" stroke:none;fill-rule:nonzero;fill:rgb(46.666667%,46.666667%,46.666667%);fill-opacity:1;" d="M 2.71875 10.042969 L 6.976562 0.121094 L 8.863281 0.449219 Z M 2.71875 10.042969 "/>
<path style=" stroke:none;fill-rule:nonzero;fill:rgb(46.666667%,46.666667%,46.666667%);fill-opacity:1;" d="M 2.71875 10.042969 L 13.710938 3.109375 L 15.117188 5.191406 Z M 2.71875 10.042969 "/>
<path style=" stroke:none;fill-rule:nonzero;fill:rgb(46.666667%,46.666667%,46.666667%);fill-opacity:1;" d="M 2.71875 10.042969 L 15.65625 6.589844 L 16.074219 9.050781 Z M 2.71875 10.042969 "/>
<path style=" stroke:none;fill-rule:nonzero;fill:rgb(67.45098%,67.45098%,67.45098%);fill-opacity:1;" d="M 0 0 L 3.058594 0.00390625 L 2.914062 20.089844 L 0 20.089844 Z M 0 0 "/>
<path style=" stroke:none;fill-rule:nonzero;fill:rgb(67.45098%,67.45098%,67.45098%);fill-opacity:1;" d="M 2.71875 8.230469 L 9.984375 0.773438 L 12.679688 2.183594 L 2.714844 11.96875 Z M 2.71875 8.230469 "/>
<path style=" stroke:none;fill-rule:nonzero;fill:rgb(46.666667%,46.666667%,46.666667%);fill-opacity:1;" d="M 2.71875 10.042969 L 3.851562 20.089844 L 5.839844 20.046875 Z M 2.71875 10.042969 "/>
<path style=" stroke:none;fill-rule:nonzero;fill:rgb(46.666667%,46.666667%,46.666667%);fill-opacity:1;" d="M 2.71875 10.042969 L 6.976562 19.96875 L 8.863281 19.640625 Z M 2.71875 10.042969 "/>
<path style=" stroke:none;fill-rule:nonzero;fill:rgb(46.666667%,46.666667%,46.666667%);fill-opacity:1;" d="M 2.71875 10.042969 L 13.710938 16.980469 L 15.117188 14.898438 Z M 2.71875 10.042969 "/>
<path style=" stroke:none;fill-rule:nonzero;fill:rgb(46.666667%,46.666667%,46.666667%);fill-opacity:1;" d="M 2.71875 10.042969 L 15.65625 13.5 L 16.074219 11.039062 Z M 2.71875 10.042969 "/>
<path style=" stroke:none;fill-rule:nonzero;fill:rgb(67.45098%,67.45098%,67.45098%);fill-opacity:1;" d="M 2.71875 11.859375 L 9.984375 19.316406 L 12.679688 17.90625 L 2.714844 8.121094 Z M 2.71875 11.859375 "/>
</g>
</svg>
