<?xml version="1.0" encoding="UTF-8" standalone="no"?>
<!-- Created with Inkscape (http://www.inkscape.org/) -->

<svg
   xmlns:dc="http://purl.org/dc/elements/1.1/"
   xmlns:cc="http://creativecommons.org/ns#"
   xmlns:rdf="http://www.w3.org/1999/02/22-rdf-syntax-ns#"
   xmlns:svg="http://www.w3.org/2000/svg"
   xmlns="http://www.w3.org/2000/svg"
   xmlns:sodipodi="http://sodipodi.sourceforge.net/DTD/sodipodi-0.dtd"
   xmlns:inkscape="http://www.inkscape.org/namespaces/inkscape"
   id="svg3039"
   version="1.1"
   inkscape:version="0.48.4 r9939"
   sodipodi:docname="banner.svg"
   inkscape:export-filename="/home/jonathan/dev/artwork/kaheim/banner.png"
   inkscape:export-xdpi="300"
   inkscape:export-ydpi="300">
  <title
     id="title4102">Kaheim Banner</title>
  <metadata
     id="metadata3045">
    <rdf:RDF>
      <cc:Work
         rdf:about="">
        <dc:format>image/svg+xml</dc:format>
        <dc:type
           rdf:resource="http://purl.org/dc/dcmitype/StillImage" />
        <dc:title>Kaheim Banner</dc:title>
        <cc:license
           rdf:resource="copyright.txt" />
        <dc:creator>
          <cc:Agent>
            <dc:title>Jonathan Kieling</dc:title>
          </cc:Agent>
        </dc:creator>
        <dc:language>German</dc:language>
        <dc:subject>
          <rdf:Bag>
            <rdf:li>daheim</rdf:li>
            <rdf:li>kaheim</rdf:li>
            <rdf:li>banner</rdf:li>
          </rdf:Bag>
        </dc:subject>
        <dc:contributor>
          <cc:Agent>
            <dc:title>Miram Frank, Jonathan Kieling</dc:title>
          </cc:Agent>
        </dc:contributor>
      </cc:Work>
    </rdf:RDF>
  </metadata>
  <defs
     id="defs3043" />
  <sodipodi:namedview
     pagecolor="#ffffff"
     bordercolor="#666666"
     borderopacity="1"
     objecttolerance="10"
     gridtolerance="10"
     guidetolerance="10"
     inkscape:pageopacity="0"
     inkscape:pageshadow="2"
     inkscape:window-width="1920"
     inkscape:window-height="1014"
     id="namedview3041"
     showgrid="false"
     inkscape:zoom="6.4230769"
     inkscape:cx="98.313992"
     inkscape:cy="11.853463"
     inkscape:window-x="0"
     inkscape:window-y="27"
     inkscape:window-maximized="1"
     inkscape:current-layer="svg3039"
     showguides="true"
     inkscape:guide-bbox="true"
     inkscape:object-paths="true"
     inkscape:snap-nodes="true"
     inkscape:snap-bbox="true"
     inkscape:bbox-paths="false"
     inkscape:bbox-nodes="false"
     inkscape:snap-bbox-edge-midpoints="true"
     fit-margin-top="0"
     fit-margin-left="0"
     fit-margin-right="0"
     fit-margin-bottom="0">
    <sodipodi:guide
       orientation="1,0"
       position="0.087403986,88.816463"
       id="guide3918" />
    <sodipodi:guide
       orientation="0,1"
       position="8.1671246,59.926443"
       id="guide4094" />
    <sodipodi:guide
       orientation="0,1"
       position="7.4262936,0.0018725269"
       id="guide4096" />
    <sodipodi:guide
       orientation="0,1"
       position="8.1996916,-56.316842"
       id="guide4098" />
    <sodipodi:guide
       orientation="0,1"
       position="7.8351606,-116.72088"
       id="guide4100" />
    <sodipodi:guide
       orientation="1,0"
       position="2.3846858,18.210328"
       id="guide4300" />
  </sodipodi:namedview>
  <path
     style="fill:#777777;fill-opacity:1"
     d="M 7.470658,36.1537 C 5.7984465,36.140999 3.5311891,36.063281 2.4323071,35.980852 1.3334256,35.898489 0.33661398,35.794669 0.21717038,35.750189 0.04541293,35.686213 1.359352e-8,32.021378 1.359352e-8,18.224483 l 0,-17.44483198 L 1.2595877,0.59234939 C 1.952361,0.48932496 3.4474095,0.31442039 4.5819169,0.20366202 5.8377427,0.08105632 8.1824734,0.03724962 10.575817,0.09169049 c 3.10823,0.07070489 4.286133,0.16664935 5.626881,0.45836865 0.932647,0.20293063 2.349112,0.60537986 3.147699,0.89434106 0.798588,0.2889708 2.069866,0.9056482 2.825064,1.3703955 0.755199,0.4647567 1.886745,1.3461795 2.514546,1.9587152 0.6278,0.6125451 1.475511,1.6056266 1.883801,2.2068647 0.408289,0.601238 0.967401,1.5895048 1.24247,2.1961547 0.275067,0.6066499 0.662567,1.6951067 0.86111,2.4187997 0.333603,1.216001 0.356268,1.681043 0.298807,6.130892 -0.06118,4.737636 -0.07006,4.83884 -0.552412,6.291845 -0.269631,0.812215 -0.81396,2.130805 -1.209622,2.930197 -0.395661,0.799391 -1.227562,2.085064 -1.848669,2.857046 -0.621108,0.771991 -1.662936,1.808548 -2.315175,2.303463 -0.652239,0.494915 -1.824958,1.218731 -2.606043,1.60848 -0.781086,0.389748 -2.010626,0.899468 -2.732312,1.132719 -0.721686,0.23324 -1.933498,0.548673 -2.692912,0.700945 -0.759416,0.152271 -2.084387,0.355382 -2.944381,0.451345 -0.859995,0.09597 -2.9317995,0.164119 -4.604011,0.151438 z m 0.8686817,-0.585922 c 3.7854993,-0.04256 4.8985343,-0.113299 6.2606743,-0.39809 0.911166,-0.190495 2.27934,-0.555298 3.040384,-0.81068 0.761046,-0.255371 1.852809,-0.709115 2.426138,-1.008321 0.57333,-0.299207 1.472415,-0.831238 1.997967,-1.182298 0.525552,-0.351051 1.402908,-1.09713 1.949681,-1.657954 0.546769,-0.560815 1.197084,-1.293312 1.445138,-1.627748 0.248054,-0.334446 0.726905,-1.098229 1.064113,-1.697306 0.337206,-0.599077 0.871091,-1.81105 1.186406,-2.693269 0.315318,-0.882219 0.708461,-2.412326 0.873652,-3.400235 0.234941,-1.405054 0.280848,-2.426483 0.210816,-4.690528 -0.06631,-2.14342 -0.183644,-3.254918 -0.452283,-4.284215 C 28.142513,11.352696 27.570005,9.9063451 27.069785,8.9030179 26.27648,7.3118166 25.948627,6.8674941 24.503306,5.424792 23.533117,4.4563624 22.378243,3.5008417 21.717031,3.1194902 21.095924,2.7612647 19.967281,2.2285232 19.208934,1.9356287 18.450588,1.6427246 17.160596,1.2558001 16.342287,1.0757965 15.523976,0.89578333 13.717738,0.65577528 12.328426,0.54242946 10.42641,0.3872578 9.074482,0.38403533 6.8557339,0.52935 5.2350662,0.6355116 3.1467981,0.81646306 2.2151371,0.93146751 l -1.69392837,0.20910069 0,17.0726648 0,17.072673 0.91211527,0.100039 c 0.5016633,0.05507 1.2248407,0.130084 1.6070603,0.166801 0.3822197,0.03668 2.7667496,0.0435 5.2989554,0.01507 z M 9.6423608,32.43067 c -1.5288787,0.03611 -3.2879577,0.01479 -3.9090652,-0.04729 l -1.1292858,-0.112862 -0.04593,-5.331718 -0.04593,-5.331718 1.3489515,-1.561829 c 0.7419228,-0.858998 1.4461398,-1.567431 1.5649259,-1.574293 0.1187861,-0.0066 2.0928639,2.80125 4.3868393,6.240238 2.293976,3.438997 4.170866,6.364729 4.170866,6.501637 0,0.136908 -0.257246,0.33382 -0.571657,0.437584 -0.314412,0.103764 -1.11577,0.307007 -1.780796,0.451649 -0.684425,0.148869 -2.415445,0.291454 -3.9889202,0.328578 z M 8.45707,31.983902 c 1.3547437,0.01431 3.074732,-0.05573 3.822198,-0.155731 0.747464,-0.09996 1.768728,-0.297387 2.269474,-0.438702 L 15.459189,31.132515 11.448727,25.12058 C 7.5570876,19.286753 7.4289753,19.118303 7.1247395,19.435082 c -0.1724394,0.179548 -0.71242,0.78816 -1.1999568,1.352463 l -0.8864316,1.026017 0,4.999784 0,4.999774 0.4777743,0.07241 c 0.2627758,0.03981 1.5862009,0.08407 2.9409446,0.09841 z m 10.740495,-2.23254 c -0.130686,0 -1.128769,-1.309529 -2.217964,-2.910075 -1.089196,-1.600547 -3.127019,-4.603173 -4.528496,-6.672505 -1.401476,-2.069331 -2.5481398,-3.853701 -2.5481398,-3.965255 0,-0.111564 1.9633828,-2.503446 4.3630738,-5.315303 2.399692,-2.8118562 4.477374,-5.112457 4.617075,-5.112457 0.1397,0 0.683673,0.3322656 1.208828,0.7383733 0.525156,0.4061077 1.312352,1.2074709 1.749326,1.7807966 0.436974,0.5733352 1.061016,1.599684 1.386759,2.2807821 0.325745,0.681109 0.743452,1.971103 0.928241,2.866658 0.23116,1.120294 0.336689,2.339347 0.33826,3.907526 0.0012,1.257363 -0.114572,2.949342 -0.258355,3.773848 -0.14335,0.822027 -0.490003,2.123083 -0.770343,2.891236 -0.280339,0.768143 -0.806028,1.884437 -1.168199,2.480651 -0.362172,0.596215 -1.154385,1.572654 -1.760474,2.169873 -0.60609,0.597219 -1.208906,1.085851 -1.339592,1.085851 z m 1.21794,-1.777697 c 0.723481,-0.75024 1.47741,-1.758865 1.857713,-2.485306 0.352034,-0.672445 0.839054,-1.909297 1.082265,-2.748563 0.24321,-0.839274 0.5237,-2.390185 0.623312,-3.446465 0.09961,-1.05629 0.132383,-2.516687 0.07283,-3.245336 -0.05955,-0.728649 -0.260427,-1.989357 -0.44638,-2.801572 C 23.419288,12.434206 22.979499,11.183308 22.627934,10.466639 22.151361,9.4951477 21.622233,8.7953778 20.548306,7.716332 19.756075,6.9203238 19.039241,6.2948793 18.955339,6.3264406 c -0.0839,0.031561 -2.041381,2.2680159 -4.349955,4.9698814 l -4.197409,4.912474 1.788898,2.64933 c 0.983892,1.457137 2.961615,4.388329 4.39494,6.513778 l 2.606044,3.86444 1.217649,-1.262679 z M 4.7635603,17.937304 c -0.2146055,0 -0.2439101,-0.985556 -0.2049779,-6.893558 L 4.6040098,4.1501894 5.1252186,4.0075001 C 5.4118843,3.9290233 6.6627845,3.7913194 7.9049984,3.7015071 9.2902153,3.601345 10.866724,3.5997527 11.981988,3.697716 c 1.00013,0.087576 2.231485,0.2516279 2.736345,0.3646136 0.50486,0.1129856 0.917928,0.2979178 0.917928,0.4109698 0,0.113052 -1.843868,2.4655915 -4.097484,5.2278782 C 9.2851598,12.463455 6.8951439,15.446681 6.227629,16.330568 5.5601141,17.214446 4.9012832,17.937626 4.7635603,17.937626 z M 5.093573,16.89488 c 0.032784,0 0.3025524,-0.338284 0.5994815,-0.751756 0.2969293,-0.413462 2.50913,-3.169351 4.9160025,-6.124201 L 14.985189,4.646479 14.051137,4.410935 C 13.435293,4.2556401 12.022119,4.1742442 9.9029652,4.1720074 8.1351997,4.1701119 6.3370292,4.2392055 5.9070316,4.3254446 l -0.781813,0.1568303 -0.045626,6.2062971 c -0.025097,3.413475 -0.018804,6.206308 0.01398,6.206308 z"
     id="path3055-5"
     inkscape:connector-curvature="0" />
  <path
     style="fill:#777777;fill-opacity:1;stroke:#777777;stroke-width:0.94778680999999998;stroke-linecap:butt;stroke-linejoin:miter;stroke-miterlimit:4;stroke-dasharray:none;stroke-opacity:1"
     d="M 3.7038114,35.520768 C 2.6799363,35.490344 1.0984373,35.358791 0.68431801,35.269604 l -0.12758424,-0.02749 0,-17.038505 c 0,-9.3711767 0.007999,-17.0384971 0.0177814,-17.0384971 0.009779,0 0.30168585,-0.037438 0.64868043,-0.083216 1.8417857,-0.24291773 5.1818022,-0.51902698 7.1329199,-0.58965605 2.1485295,-0.0778133 4.8557785,0.0954232 7.0570915,0.45150667 1.3014,0.21051288 3.07685,0.72345518 4.252809,1.22868238 0.844528,0.3628317 2.015212,0.955189 2.381544,1.2050446 1.327397,0.9053544 3.42367,2.9592936 4.1659,4.081786 0.604302,0.9139034 1.392197,2.5848235 1.871058,3.9680235 0.468389,1.352948 0.625424,2.630081 0.690415,5.614974 0.02221,1.020065 0.01161,1.908843 -0.02877,2.409928 -0.29725,3.689336 -1.760619,7.565699 -3.745887,9.922598 -2.431701,2.886911 -5.333584,4.554448 -9.759099,5.607969 -1.775632,0.422694 -2.619462,0.490262 -6.5190497,0.521966 -1.6997049,0.01384 -3.2562322,0.03099 -3.4589496,0.03829 -0.2027163,0.0076 -0.9044302,-0.0028 -1.5593622,-0.02227 z m 7.1447166,-3.11403 c 1.398348,-0.0763 2.38892,-0.191026 3.178426,-0.368101 1.396365,-0.313177 1.952073,-0.540447 1.952907,-0.798681 7.12e-4,-0.221631 -0.87211,-1.602139 -3.885614,-6.145706 -2.3049215,-3.475212 -4.246912,-6.26542 -4.5516084,-6.539662 -0.08767,-0.07895 -0.1409605,-0.09004 -0.2225308,-0.04635 -0.1659111,0.08881 -1.1607469,1.14123 -2.0456147,2.164044 l -0.8002969,0.925068 0.027192,2.783299 c 0.014956,1.530818 0.042366,3.936481 0.060914,5.345916 l 0.033722,2.562616 0.2910483,0.03583 c 1.1578597,0.142518 4.1068301,0.182951 5.9614575,0.0817 l 0,0 z m 9.317108,-3.363979 c 1.165101,-1.058678 2.015074,-2.171674 2.647288,-3.466483 1.22834,-2.515711 1.679053,-4.700656 1.684382,-8.16543 0.0041,-2.656656 -0.239608,-4.227489 -0.951583,-6.133859 -0.255136,-0.683146 -0.469897,-1.11309 -0.951234,-1.9043691 -0.550981,-0.905762 -0.950341,-1.415131 -1.678301,-2.1406144 -0.673573,-0.671289 -1.760766,-1.4738464 -1.996555,-1.4738464 -0.137557,0 -0.466646,0.3319813 -1.798734,1.8145283 -2.249795,2.5039196 -6.957461,8.0942046 -7.2036744,8.5542606 -0.070639,0.131988 0.3178894,0.778967 1.8096044,3.013374 1.001253,1.499759 4.724213,6.995984 5.492561,8.108686 0.587347,0.850591 1.463075,2.022643 1.717498,2.298658 l 0.232711,0.252462 0.213033,-0.119734 c 0.117168,-0.06587 0.46952,-0.352786 0.783004,-0.637633 l 0,0 z M 5.1795354,17.623492 c 0.174913,-0.179331 0.9345165,-1.104314 1.688008,-2.055523 0.7534914,-0.951217 2.1754692,-2.72464 3.1599506,-3.940936 4.072394,-5.0313546 5.61253,-6.9928373 5.61253,-7.148009 0,-0.2652855 -0.898784,-0.492053 -2.948613,-0.7439463 C 11.54616,3.5943503 8.4909211,3.5954972 7.0777047,3.7369733 5.9752646,3.8475042 5.1144309,3.9685271 4.8021418,4.0568703 l -0.205864,0.058289 -0.040869,3.3022219 c -0.022472,1.8162249 -0.030794,4.8587438 -0.018491,6.7611708 0.022851,3.532392 0.038063,3.770827 0.2404914,3.770827 0.046252,0 0.2272035,-0.146727 0.4021166,-0.326049 z"
     id="path3825-34"
     inkscape:connector-curvature="0" />
  <path
     style="fill:#acacac;fill-opacity:1;stroke:#acacac;stroke-width:1.89599999999999991;stroke-linecap:butt;stroke-linejoin:miter;stroke-miterlimit:4;stroke-opacity:1;stroke-dasharray:none"
     d="M 5.8495796,16.209043 15.733545,3.752299 20.358279,5.6438635 11.561088,16.104815 20.698187,29.120733 16.637404,31.260561 12.385186,24.96156 8.1369711,19.079264 5.8095015,21.868278 z"
     id="path3965"
     inkscape:connector-curvature="0"
     sodipodi:nodetypes="cccccccccc" />
  <g
     style="font-size:45.49376678px;font-style:normal;font-weight:normal;line-height:125%;letter-spacing:0px;word-spacing:0px;fill:#acacac;fill-opacity:1;stroke:none;font-family:Sans"
     id="text3953-5">
    <path
       d="m 42.000063,31.684444 c 1.698421,4e-6 2.987409,-0.09098 3.86697,-0.272962 l 0,-6.096165 c -0.303307,-0.09098 -0.743079,-0.181965 -1.319319,-0.272963 -0.576268,-0.09098 -1.21318,-0.13647 -1.910738,-0.136481 -0.606595,1.1e-5 -1.228343,0.0455 -1.865244,0.136481 -0.606594,0.091 -1.167683,0.257809 -1.68327,0.500432 -0.485275,0.242643 -0.879554,0.591428 -1.182838,1.046356 -0.303299,0.424617 -0.454945,0.970542 -0.454937,1.637776 -8e-6,1.304161 0.409436,2.214035 1.228331,2.729626 0.818879,0.485271 1.925893,0.727904 3.321045,0.7279 M 41.545126,11.166755 c 1.819737,2.5e-5 3.351359,0.227493 4.59487,0.682407 1.243479,0.454961 2.229176,1.091873 2.957095,1.910738 0.75821,0.818909 1.28897,1.819771 1.592282,3.002589 0.3336,1.152526 0.50041,2.42635 0.500431,3.821476 l 0,14.421524 c -0.849237,0.181976 -2.138226,0.39428 -3.86697,0.636913 -1.698449,0.272962 -3.62435,0.409443 -5.777708,0.409444 -1.425482,-10e-7 -2.729635,-0.136482 -3.912464,-0.409444 -1.182845,-0.272962 -2.198871,-0.712735 -3.048083,-1.319319 -0.818891,-0.606582 -1.470968,-1.39514 -1.956232,-2.365676 -0.454939,-0.970529 -0.682408,-2.168531 -0.682406,-3.594008 -2e-6,-1.364804 0.257796,-2.517312 0.773394,-3.457526 0.545922,-0.940193 1.273821,-1.698422 2.183701,-2.274688 0.909869,-0.60657 1.956225,-1.031178 3.13907,-1.273826 1.213158,-0.272948 2.471817,-0.409429 3.775982,-0.409444 0.606572,1.5e-5 1.243484,0.04551 1.910738,0.136482 0.667228,0.06067 1.379963,0.181989 2.138207,0.36395 l 0,-0.909876 c -1.5e-5,-0.636897 -0.07584,-1.24348 -0.227468,-1.81975 -0.151662,-0.576237 -0.424624,-1.076668 -0.818888,-1.501295 -0.363965,-0.454918 -0.864396,-0.803704 -1.501294,-1.046356 -0.606597,-0.242614 -1.37999,-0.363931 -2.320183,-0.36395 -1.273835,1.9e-5 -2.441507,0.09101 -3.50302,0.272962 -1.061527,0.181995 -1.925908,0.394299 -2.593144,0.636913 l -0.682407,-4.458389 c 0.697566,-0.24261 1.713593,-0.485243 3.048083,-0.7279 1.334475,-0.24261 2.759945,-0.363926 4.276414,-0.363951"
       style="font-variant:normal;font-weight:500;font-stretch:normal;fill:#acacac;font-family:Ubuntu;-inkscape-font-specification:Ubuntu Medium"
       id="path3061" />
    <path
       d="m 57.886628,35.551414 0,-34.3932872 5.504746,-0.90987534 0,11.78288554 c 0.606574,-0.21228 1.304144,-0.394255 2.092713,-0.545925 0.818876,-0.151622 1.622598,-0.227445 2.41117,-0.227469 1.910722,2.4e-5 3.487838,0.272987 4.731351,0.818888 1.273806,0.515619 2.289833,1.258683 3.048083,2.229194 0.758207,0.940225 1.288967,2.077568 1.592282,3.412033 0.333597,1.3345 0.500408,2.820628 0.500431,4.458389 l 0,13.375167 -5.504746,0 0,-12.510785 c -1.8e-5,-1.273812 -0.091,-2.350497 -0.272962,-3.230058 -0.151664,-0.909859 -0.424626,-1.637758 -0.818888,-2.183701 -0.363967,-0.576236 -0.864398,-0.985679 -1.501294,-1.228331 -0.636928,-0.272944 -1.425486,-0.409425 -2.365676,-0.409444 -0.727913,1.9e-5 -1.470977,0.07584 -2.229195,0.227469 -0.758239,0.151665 -1.319329,0.288146 -1.683269,0.409444 l 0,18.925406 -5.504746,0"
       style="font-variant:normal;font-weight:500;font-stretch:normal;fill:#acacac;font-family:Ubuntu;-inkscape-font-specification:Ubuntu Medium"
       id="path3063" />
    <path
       d="m 83.046105,23.768529 c -3e-6,-2.0927 0.303289,-3.927613 0.909875,-5.504746 0.636909,-1.577098 1.470961,-2.881252 2.502157,-3.912464 1.031186,-1.061499 2.214022,-1.850057 3.548514,-2.365676 1.334473,-0.545901 2.699285,-0.818863 4.094439,-0.818888 3.275535,2.5e-5 5.823183,1.016051 7.64295,3.048083 1.85006,2.032074 2.7751,5.064989 2.77512,9.098753 -2e-5,0.303304 -0.0152,0.652089 -0.0455,1.046357 -2e-5,0.363961 -0.0152,0.697581 -0.0455,1.000863 l -15.695354,0 c 0.151637,1.910746 0.818879,3.396874 2.001725,4.458389 1.213156,1.031197 2.957082,1.546792 5.231783,1.546788 1.334468,4e-6 2.547634,-0.121312 3.639502,-0.36395 1.122164,-0.242629 2.001704,-0.500427 2.638634,-0.773394 l 0.7279,4.503883 c -0.30331,0.151646 -0.72792,0.318457 -1.27382,0.500431 -0.51562,0.151646 -1.1222,0.288127 -1.819752,0.409444 -0.66726,0.151646 -1.395159,0.272962 -2.1837,0.36395 -0.788575,0.09099 -1.592297,0.136481 -2.41117,0.136481 -2.092726,0 -3.912475,-0.303292 -5.459252,-0.909875 -1.546796,-0.636912 -2.82062,-1.501292 -3.821476,-2.593145 -1.000867,-1.122175 -1.743932,-2.426328 -2.229195,-3.912464 -0.485269,-1.51645 -0.727903,-3.169389 -0.7279,-4.95882 m 15.968312,-2.456664 c -1.8e-5,-0.758214 -0.10617,-1.470949 -0.318457,-2.138207 -0.212321,-0.697554 -0.530777,-1.288972 -0.955369,-1.774256 -0.394295,-0.515578 -0.894726,-0.909857 -1.501294,-1.182838 -0.576269,-0.303273 -1.27384,-0.454918 -2.092713,-0.454938 -0.84923,2e-5 -1.592294,0.16683 -2.229195,0.500431 -0.636923,0.303311 -1.182848,0.712755 -1.637775,1.228332 -0.424618,0.515614 -0.758239,1.107032 -1.000863,1.774257 -0.242642,0.667258 -0.409452,1.349663 -0.500432,2.047219 l 10.236098,0"
       style="font-variant:normal;font-weight:500;font-stretch:normal;fill:#acacac;font-family:Ubuntu;-inkscape-font-specification:Ubuntu Medium"
       id="path3065" />
    <path
       d="m 115.86133,35.551414 -5.50475,0 0,-23.79324 5.50475,0 0,23.79324 m 0.59142,-30.7537859 c -10e-6,1.0312218 -0.33363,1.8501088 -1.00087,2.4566634 -0.66725,0.6066113 -1.4558,0.9099028 -2.36567,0.9098754 -0.94021,2.74e-5 -1.74394,-0.3032641 -2.41117,-0.9098754 -0.66725,-0.6065546 -1.00087,-1.4254416 -1.00087,-2.4566634 0,-1.0614894 0.33362,-1.8955409 1.00087,-2.5021571 0.66723,-0.6065497 1.47096,-0.9098412 2.41117,-0.9098754 0.90987,3.42e-5 1.69842,0.3033257 2.36567,0.9098754 0.66724,0.6066162 1.00086,1.4406677 1.00087,2.5021571"
       style="font-variant:normal;font-weight:500;font-stretch:normal;fill:#acacac;font-family:Ubuntu;-inkscape-font-specification:Ubuntu Medium"
       id="path3067" />
    <path
       d="m 136.39679,23.040629 c -2e-5,-2.486978 -0.31848,-4.276398 -0.95537,-5.368265 -0.6066,-1.12216 -1.75911,-1.68325 -3.45753,-1.683269 -0.60659,1.9e-5 -1.27384,0.04551 -2.00172,0.136481 -0.72791,0.09101 -1.27384,0.16683 -1.63778,0.227469 l 0,19.198369 -5.50475,0 0,-23.019846 c 1.06152,-0.303268 2.4415,-0.591395 4.13994,-0.864381 1.72875,-0.272939 3.5485,-0.40942 5.45925,-0.409444 1.63776,2.4e-5 2.97224,0.212328 4.00345,0.636913 1.0615,0.424631 1.94105,0.985721 2.63864,1.683269 0.3336,-0.242611 0.75821,-0.500409 1.27382,-0.773394 0.51558,-0.272939 1.09183,-0.515573 1.72877,-0.7279 0.63689,-0.24261 1.30413,-0.439749 2.00172,-0.591419 0.72788,-0.151622 1.45578,-0.227445 2.1837,-0.227469 1.85006,2.4e-5 3.36651,0.272987 4.54938,0.818888 1.21314,0.515619 2.15334,1.258683 2.82061,2.229194 0.69754,0.940225 1.16764,2.092733 1.41031,3.457527 0.27293,1.3345 0.40941,2.805464 0.40944,4.412895 l 0,13.375167 -5.50474,0 0,-12.510785 c -3e-5,-2.486978 -0.30332,-4.276398 -0.90988,-5.368265 -0.60661,-1.12216 -1.77428,-1.68325 -3.50302,-1.683269 -0.87957,1.9e-5 -1.71362,0.151665 -2.50215,0.454937 -0.78858,0.272982 -1.38,0.545944 -1.77426,0.818888 0.24261,0.758247 0.40942,1.56197 0.50043,2.41117 0.091,0.849232 0.13646,1.759106 0.13648,2.729626 l 0,13.147698 -5.50474,0 0,-12.510785"
       style="font-variant:normal;font-weight:500;font-stretch:normal;fill:#acacac;font-family:Ubuntu;-inkscape-font-specification:Ubuntu Medium"
       id="path3069" />
  </g>
</svg>
