<?xml version="1.0" encoding="UTF-8" standalone="no"?>
<!-- Created with Inkscape (http://www.inkscape.org/) -->

<svg
   xmlns:dc="http://purl.org/dc/elements/1.1/"
   xmlns:cc="http://creativecommons.org/ns#"
   xmlns:rdf="http://www.w3.org/1999/02/22-rdf-syntax-ns#"
   xmlns:svg="http://www.w3.org/2000/svg"
   xmlns="http://www.w3.org/2000/svg"
   xmlns:sodipodi="http://sodipodi.sourceforge.net/DTD/sodipodi-0.dtd"
   xmlns:inkscape="http://www.inkscape.org/namespaces/inkscape"
   id="svg3039"
   version="1.1"
   inkscape:version="0.48.4 r9939"
   width="155.45868"
   height="36.15522"
   sodipodi:docname="banner-faecher-inverted.svg"
   inkscape:export-filename="/home/grundmann/ruby-on-rails/kaheim/app/assets/images/banner-faecher-inverted.png"
   inkscape:export-xdpi="224.03404"
   inkscape:export-ydpi="224.03404">
  <title
     id="title4102">Kaheim Banner</title>
  <metadata
     id="metadata3045">
    <rdf:RDF>
      <cc:Work
         rdf:about="">
        <dc:format>image/svg+xml</dc:format>
        <dc:type
           rdf:resource="http://purl.org/dc/dcmitype/StillImage" />
        <dc:title>Kaheim Banner</dc:title>
        <cc:license
           rdf:resource="copyright.txt" />
        <dc:creator>
          <cc:Agent>
            <dc:title>Jonathan Kieling</dc:title>
          </cc:Agent>
        </dc:creator>
        <dc:language>German</dc:language>
        <dc:subject>
          <rdf:Bag>
            <rdf:li>daheim</rdf:li>
            <rdf:li>kaheim</rdf:li>
            <rdf:li>banner</rdf:li>
          </rdf:Bag>
        </dc:subject>
        <dc:contributor>
          <cc:Agent>
            <dc:title>Miram Frank, Jonathan Kieling</dc:title>
          </cc:Agent>
        </dc:contributor>
      </cc:Work>
    </rdf:RDF>
  </metadata>
  <defs
     id="defs3043">
    <filter
       id="filter3002"
       inkscape:label="Invert"
       x="0"
       y="0"
       width="1"
       height="1"
       inkscape:menu="Color"
       inkscape:menu-tooltip="Invert colors"
       color-interpolation-filters="sRGB">
      <feColorMatrix
         id="feColorMatrix3004"
         type="saturate"
         values="1"
         result="fbSourceGraphic" />
      <feColorMatrix
         id="feColorMatrix3006"
         in="fbSourceGraphic"
         values="-1 0 0 0 1 0 -1 0 0 1 0 0 -1 0 1 0 0 0 1 0 " />
    </filter>
    <filter
       id="filter3008"
       inkscape:label="Invert"
       x="0"
       y="0"
       width="1"
       height="1"
       inkscape:menu="Color"
       inkscape:menu-tooltip="Invert colors"
       color-interpolation-filters="sRGB">
      <feColorMatrix
         id="feColorMatrix3010"
         type="saturate"
         values="1"
         result="fbSourceGraphic" />
      <feColorMatrix
         id="feColorMatrix3012"
         in="fbSourceGraphic"
         values="-1 0 0 0 1 0 -1 0 0 1 0 0 -1 0 1 0 0 0 1 0 " />
    </filter>
  </defs>
  <sodipodi:namedview
     pagecolor="#333333"
     bordercolor="#666666"
     borderopacity="1"
     objecttolerance="10"
     gridtolerance="10"
     guidetolerance="10"
     inkscape:pageopacity="0"
     inkscape:pageshadow="2"
     inkscape:window-width="1316"
     inkscape:window-height="677"
     id="namedview3041"
     showgrid="false"
     inkscape:zoom="5.6568543"
     inkscape:cx="89.145452"
     inkscape:cy="15.144735"
     inkscape:window-x="1905"
     inkscape:window-y="28"
     inkscape:window-maximized="0"
     inkscape:current-layer="svg3039"
     showguides="false"
     inkscape:guide-bbox="true"
     inkscape:object-paths="true"
     inkscape:snap-nodes="true"
     inkscape:snap-bbox="true"
     inkscape:bbox-paths="false"
     inkscape:bbox-nodes="false"
     inkscape:snap-bbox-edge-midpoints="false"
     fit-margin-top="0"
     fit-margin-left="0"
     fit-margin-right="0"
     fit-margin-bottom="0"
     inkscape:snap-bbox-midpoints="false"
     inkscape:object-nodes="false"
     inkscape:showpageshadow="false"
     showborder="true"
     borderlayer="false">
    <sodipodi:guide
       orientation="0,1"
       position="2.7535537,18.074978"
       id="guide3200" />
    <sodipodi:guide
       orientation="1,0"
       position="5.0491844,19.246563"
       id="guide3210" />
  </sodipodi:namedview>
  <g
     style="font-size:45.49376678000000140px;font-style:normal;font-weight:normal;line-height:125%;letter-spacing:0px;word-spacing:0px;fill:#acacac;fill-opacity:1;stroke:none;font-family:Sans;filter:url(#filter3002)"
     id="text3953-5">
    <path
       d="m 42.000063,31.684444 c 1.698421,4e-6 2.987409,-0.09098 3.86697,-0.272962 l 0,-6.096165 c -0.303307,-0.09098 -0.743079,-0.181965 -1.319319,-0.272963 -0.576268,-0.09098 -1.21318,-0.13647 -1.910738,-0.136481 -0.606595,1.1e-5 -1.228343,0.0455 -1.865244,0.136481 -0.606594,0.091 -1.167683,0.257809 -1.68327,0.500432 -0.485275,0.242643 -0.879554,0.591428 -1.182838,1.046356 -0.303299,0.424617 -0.454945,0.970542 -0.454937,1.637776 -8e-6,1.304161 0.409436,2.214035 1.228331,2.729626 0.818879,0.485271 1.925893,0.727904 3.321045,0.7279 M 41.545126,11.166755 c 1.819737,2.5e-5 3.351359,0.227493 4.59487,0.682407 1.243479,0.454961 2.229176,1.091873 2.957095,1.910738 0.75821,0.818909 1.28897,1.819771 1.592282,3.002589 0.3336,1.152526 0.50041,2.42635 0.500431,3.821476 l 0,14.421524 c -0.849237,0.181976 -2.138226,0.39428 -3.86697,0.636913 -1.698449,0.272962 -3.62435,0.409443 -5.777708,0.409444 -1.425482,-10e-7 -2.729635,-0.136482 -3.912464,-0.409444 -1.182845,-0.272962 -2.198871,-0.712735 -3.048083,-1.319319 -0.818891,-0.606582 -1.470968,-1.39514 -1.956232,-2.365676 -0.454939,-0.970529 -0.682408,-2.168531 -0.682406,-3.594008 -2e-6,-1.364804 0.257796,-2.517312 0.773394,-3.457526 0.545922,-0.940193 1.273821,-1.698422 2.183701,-2.274688 0.909869,-0.60657 1.956225,-1.031178 3.13907,-1.273826 1.213158,-0.272948 2.471817,-0.409429 3.775982,-0.409444 0.606572,1.5e-5 1.243484,0.04551 1.910738,0.136482 0.667228,0.06067 1.379963,0.181989 2.138207,0.36395 l 0,-0.909876 c -1.5e-5,-0.636897 -0.07584,-1.24348 -0.227468,-1.81975 -0.151662,-0.576237 -0.424624,-1.076668 -0.818888,-1.501295 -0.363965,-0.454918 -0.864396,-0.803704 -1.501294,-1.046356 -0.606597,-0.242614 -1.37999,-0.363931 -2.320183,-0.36395 -1.273835,1.9e-5 -2.441507,0.09101 -3.50302,0.272962 -1.061527,0.181995 -1.925908,0.394299 -2.593144,0.636913 l -0.682407,-4.458389 c 0.697566,-0.24261 1.713593,-0.485243 3.048083,-0.7279 1.334475,-0.24261 2.759945,-0.363926 4.276414,-0.363951"
       style="font-variant:normal;font-weight:500;font-stretch:normal;fill:#acacac;font-family:Ubuntu;-inkscape-font-specification:Ubuntu Medium"
       id="path3061" />
    <path
       d="m 57.886628,35.551414 0,-34.3932872 5.504746,-0.90987534 0,11.78288554 c 0.606574,-0.21228 1.304144,-0.394255 2.092713,-0.545925 0.818876,-0.151622 1.622598,-0.227445 2.41117,-0.227469 1.910722,2.4e-5 3.487838,0.272987 4.731351,0.818888 1.273806,0.515619 2.289833,1.258683 3.048083,2.229194 0.758207,0.940225 1.288967,2.077568 1.592282,3.412033 0.333597,1.3345 0.500408,2.820628 0.500431,4.458389 l 0,13.375167 -5.504746,0 0,-12.510785 c -1.8e-5,-1.273812 -0.091,-2.350497 -0.272962,-3.230058 -0.151664,-0.909859 -0.424626,-1.637758 -0.818888,-2.183701 -0.363967,-0.576236 -0.864398,-0.985679 -1.501294,-1.228331 -0.636928,-0.272944 -1.425486,-0.409425 -2.365676,-0.409444 -0.727913,1.9e-5 -1.470977,0.07584 -2.229195,0.227469 -0.758239,0.151665 -1.319329,0.288146 -1.683269,0.409444 l 0,18.925406 -5.504746,0"
       style="font-variant:normal;font-weight:500;font-stretch:normal;fill:#acacac;font-family:Ubuntu;-inkscape-font-specification:Ubuntu Medium"
       id="path3063" />
    <path
       d="m 83.046105,23.768529 c -3e-6,-2.0927 0.303289,-3.927613 0.909875,-5.504746 0.636909,-1.577098 1.470961,-2.881252 2.502157,-3.912464 1.031186,-1.061499 2.214022,-1.850057 3.548514,-2.365676 1.334473,-0.545901 2.699285,-0.818863 4.094439,-0.818888 3.275535,2.5e-5 5.823183,1.016051 7.64295,3.048083 1.85006,2.032074 2.7751,5.064989 2.77512,9.098753 -2e-5,0.303304 -0.0152,0.652089 -0.0455,1.046357 -2e-5,0.363961 -0.0152,0.697581 -0.0455,1.000863 l -15.695354,0 c 0.151637,1.910746 0.818879,3.396874 2.001725,4.458389 1.213156,1.031197 2.957082,1.546792 5.231783,1.546788 1.334468,4e-6 2.547634,-0.121312 3.639502,-0.36395 1.122164,-0.242629 2.001704,-0.500427 2.638634,-0.773394 l 0.7279,4.503883 c -0.30331,0.151646 -0.72792,0.318457 -1.27382,0.500431 -0.51562,0.151646 -1.1222,0.288127 -1.819752,0.409444 -0.66726,0.151646 -1.395159,0.272962 -2.1837,0.36395 -0.788575,0.09099 -1.592297,0.136481 -2.41117,0.136481 -2.092726,0 -3.912475,-0.303292 -5.459252,-0.909875 -1.546796,-0.636912 -2.82062,-1.501292 -3.821476,-2.593145 -1.000867,-1.122175 -1.743932,-2.426328 -2.229195,-3.912464 -0.485269,-1.51645 -0.727903,-3.169389 -0.7279,-4.95882 m 15.968312,-2.456664 c -1.8e-5,-0.758214 -0.10617,-1.470949 -0.318457,-2.138207 -0.212321,-0.697554 -0.530777,-1.288972 -0.955369,-1.774256 -0.394295,-0.515578 -0.894726,-0.909857 -1.501294,-1.182838 -0.576269,-0.303273 -1.27384,-0.454918 -2.092713,-0.454938 -0.84923,2e-5 -1.592294,0.16683 -2.229195,0.500431 -0.636923,0.303311 -1.182848,0.712755 -1.637775,1.228332 -0.424618,0.515614 -0.758239,1.107032 -1.000863,1.774257 -0.242642,0.667258 -0.409452,1.349663 -0.500432,2.047219 l 10.236098,0"
       style="font-variant:normal;font-weight:500;font-stretch:normal;fill:#acacac;font-family:Ubuntu;-inkscape-font-specification:Ubuntu Medium"
       id="path3065" />
    <path
       d="m 115.86133,35.551414 -5.50475,0 0,-23.79324 5.50475,0 0,23.79324 m 0.59142,-30.7537859 c -10e-6,1.0312218 -0.33363,1.8501088 -1.00087,2.4566634 -0.66725,0.6066113 -1.4558,0.9099028 -2.36567,0.9098754 -0.94021,2.74e-5 -1.74394,-0.3032641 -2.41117,-0.9098754 -0.66725,-0.6065546 -1.00087,-1.4254416 -1.00087,-2.4566634 0,-1.0614894 0.33362,-1.8955409 1.00087,-2.5021571 0.66723,-0.6065497 1.47096,-0.9098412 2.41117,-0.9098754 0.90987,3.42e-5 1.69842,0.3033257 2.36567,0.9098754 0.66724,0.6066162 1.00086,1.4406677 1.00087,2.5021571"
       style="font-variant:normal;font-weight:500;font-stretch:normal;fill:#acacac;font-family:Ubuntu;-inkscape-font-specification:Ubuntu Medium"
       id="path3067" />
    <path
       d="m 136.39679,23.040629 c -2e-5,-2.486978 -0.31848,-4.276398 -0.95537,-5.368265 -0.6066,-1.12216 -1.75911,-1.68325 -3.45753,-1.683269 -0.60659,1.9e-5 -1.27384,0.04551 -2.00172,0.136481 -0.72791,0.09101 -1.27384,0.16683 -1.63778,0.227469 l 0,19.198369 -5.50475,0 0,-23.019846 c 1.06152,-0.303268 2.4415,-0.591395 4.13994,-0.864381 1.72875,-0.272939 3.5485,-0.40942 5.45925,-0.409444 1.63776,2.4e-5 2.97224,0.212328 4.00345,0.636913 1.0615,0.424631 1.94105,0.985721 2.63864,1.683269 0.3336,-0.242611 0.75821,-0.500409 1.27382,-0.773394 0.51558,-0.272939 1.09183,-0.515573 1.72877,-0.7279 0.63689,-0.24261 1.30413,-0.439749 2.00172,-0.591419 0.72788,-0.151622 1.45578,-0.227445 2.1837,-0.227469 1.85006,2.4e-5 3.36651,0.272987 4.54938,0.818888 1.21314,0.515619 2.15334,1.258683 2.82061,2.229194 0.69754,0.940225 1.16764,2.092733 1.41031,3.457527 0.27293,1.3345 0.40941,2.805464 0.40944,4.412895 l 0,13.375167 -5.50474,0 0,-12.510785 c -3e-5,-2.486978 -0.30332,-4.276398 -0.90988,-5.368265 -0.60661,-1.12216 -1.77428,-1.68325 -3.50302,-1.683269 -0.87957,1.9e-5 -1.71362,0.151665 -2.50215,0.454937 -0.78858,0.272982 -1.38,0.545944 -1.77426,0.818888 0.24261,0.758247 0.40942,1.56197 0.50043,2.41117 0.091,0.849232 0.13646,1.759106 0.13648,2.729626 l 0,13.147698 -5.50474,0 0,-12.510785"
       style="font-variant:normal;font-weight:500;font-stretch:normal;fill:#acacac;font-family:Ubuntu;-inkscape-font-specification:Ubuntu Medium"
       id="path3069" />
  </g>
  <g
     id="g3266"
     style="filter:url(#filter3008)">
    <path
       sodipodi:nodetypes="cccc"
       inkscape:connector-curvature="0"
       id="path3825"
       d="M 4.8968406,18.080241 6.9386593,1.135e-4 10.522265,0.07512906 z"
       style="fill:#777777;fill-opacity:1;stroke:none" />
    <path
       sodipodi:nodetypes="cccc"
       inkscape:connector-curvature="0"
       id="path3827"
       d="M 4.8968406,18.080241 12.577318,0.22001743 15.971024,0.805734 z"
       style="fill:#777777;fill-opacity:1;stroke:none" />
    <path
       sodipodi:nodetypes="cccc"
       inkscape:connector-curvature="0"
       id="path3829"
       d="M 4.8968406,18.080241 24.712197,5.5965304 27.248583,9.34652 z"
       style="fill:#777777;fill-opacity:1;stroke:none" />
    <path
       sodipodi:nodetypes="cccc"
       inkscape:connector-curvature="0"
       id="path3831"
       d="m 4.8968406,18.080241 23.3185004,-6.21868 0.755222,4.427951 z"
       style="fill:#777777;fill-opacity:1;stroke:none" />
    <path
       sodipodi:nodetypes="ccccc"
       inkscape:connector-curvature="0"
       id="path2999"
       d="M -0.00243976,-6.7685997e-4 5.5095472,0.00779425 5.2494477,36.16116 l -5.25188726,0 z"
       style="fill:#acacac;fill-opacity:1;stroke:none" />
    <path
       sodipodi:nodetypes="ccccc"
       inkscape:connector-curvature="0"
       id="path3769"
       d="M 4.8968406,14.814249 17.991843,1.3905728 22.853896,3.9305296 4.8948925,21.544414 z"
       style="fill:#acacac;fill-opacity:1;stroke:none" />
    <path
       sodipodi:nodetypes="cccc"
       inkscape:connector-curvature="0"
       id="path3825-7"
       d="m 4.8968406,18.080241 2.041818,18.080129 3.5836054,-0.07502 z"
       style="fill:#777777;fill-opacity:1;stroke:none" />
    <path
       sodipodi:nodetypes="cccc"
       inkscape:connector-curvature="0"
       id="path3827-7"
       d="m 4.8968406,18.080241 7.6804764,17.860225 3.393707,-0.585718 z"
       style="fill:#777777;fill-opacity:1;stroke:none" />
    <path
       sodipodi:nodetypes="cccc"
       inkscape:connector-curvature="0"
       id="path3829-10"
       d="M 4.8968406,18.080241 24.712197,30.563952 27.248583,26.813963 z"
       style="fill:#777777;fill-opacity:1;stroke:none" />
    <path
       sodipodi:nodetypes="cccc"
       inkscape:connector-curvature="0"
       id="path3831-3"
       d="M 4.8968406,18.080241 28.215341,24.298922 28.970563,19.87097 z"
       style="fill:#777777;fill-opacity:1;stroke:none" />
    <path
       sodipodi:nodetypes="ccccc"
       inkscape:connector-curvature="0"
       id="path3769-1"
       d="M 4.8968406,21.346235 17.991843,34.769911 22.853896,32.229953 4.8948926,14.616069 z"
       style="fill:#acacac;fill-opacity:1;stroke:none" />
  </g>
</svg>
