<?xml version="1.0" encoding="UTF-8" standalone="no"?>
<!-- Created with Inkscape (http://www.inkscape.org/) -->

<svg
   xmlns:dc="http://purl.org/dc/elements/1.1/"
   xmlns:cc="http://creativecommons.org/ns#"
   xmlns:rdf="http://www.w3.org/1999/02/22-rdf-syntax-ns#"
   xmlns:svg="http://www.w3.org/2000/svg"
   xmlns="http://www.w3.org/2000/svg"
   xmlns:sodipodi="http://sodipodi.sourceforge.net/DTD/sodipodi-0.dtd"
   xmlns:inkscape="http://www.inkscape.org/namespaces/inkscape"
   id="svg2"
   version="1.1"
   inkscape:version="0.91 r13725"
   xml:space="preserve"
   width="693.98749"
   height="71.4375"
   viewBox="0 0 693.98749 71.4375"
   sodipodi:docname="Hochschul-SMD Karlsruhe.svg"><metadata
     id="metadata8"><rdf:RDF><cc:Work
         rdf:about=""><dc:format>image/svg+xml</dc:format><dc:type
           rdf:resource="http://purl.org/dc/dcmitype/StillImage" /><dc:title></dc:title></cc:Work></rdf:RDF></metadata><defs
     id="defs6" /><sodipodi:namedview
     pagecolor="#ffffff"
     bordercolor="#666666"
     borderopacity="1"
     objecttolerance="10"
     gridtolerance="10"
     guidetolerance="10"
     inkscape:pageopacity="0"
     inkscape:pageshadow="2"
     inkscape:window-width="1690"
     inkscape:window-height="804"
     id="namedview4"
     showgrid="false"
     inkscape:zoom="1.9712171"
     inkscape:cx="42.635887"
     inkscape:cy="120.41326"
     inkscape:window-x="0"
     inkscape:window-y="27"
     inkscape:window-maximized="0"
     inkscape:current-layer="g10" /><g
     id="g10"
     inkscape:groupmode="layer"
     inkscape:label="ink_ext_XXXXXX"
     transform="matrix(1.25,0,0,-1.25,0,71.4375)"><g
       id="g12"
       transform="scale(0.1,0.1)"><path
         d="m 229.711,133.945 0,183.477 c 0,41.683 -5.773,63.891 -19.77,81.234 -14,17.043 -41.078,28.297 -68.765,28.297 -23.125,0 -39.555,-3.957 -93.4065,-23.73 l 0,167.648 -47.7695,0 0,-436.926 47.7695,0 0,246.762 c 24.3399,6.086 46.5508,9.129 66.6285,9.129 51.422,0 67.243,-19.172 67.243,-82.457 l 0,-173.434 48.07,0 0,0"
         style="fill:#f1471d;fill-opacity:1;fill-rule:evenodd;stroke:none"
         id="path14"
         inkscape:connector-curvature="0" /><path
         d="m 493.512,279.688 c 0,-77.891 -29.52,-122.618 -80.328,-122.618 -54.766,0 -81.844,40.782 -81.844,122.012 0,73.938 30.422,118.66 80.32,118.66 53.551,0 81.852,-41.379 81.852,-118.054 l 0,0 z m 52.328,1.523 c 0,90.367 -50.199,145.742 -131.442,145.742 -85.187,0 -135.699,-57.504 -135.699,-155.781 0,-88.242 50.813,-143.301 131.746,-143.301 84.582,0 135.395,57.5 135.395,153.34 l 0,0"
         style="fill:#f1471d;fill-opacity:1;fill-rule:evenodd;stroke:none"
         id="path16"
         inkscape:connector-curvature="0" /><path
         d="m 801.723,145.82 0,27.071 c -18.868,-4.551 -46.551,-7.305 -65.114,-7.305 -72.718,0 -104.968,33.789 -104.968,110.156 0,77.887 32.863,115.617 100.406,115.617 25.555,0 44.113,-2.129 69.676,-8.523 l 0,27.687 c -33.469,10.954 -53.856,14.911 -75.153,14.911 -93.101,0 -147.566,-57.2 -147.566,-155.473 0,-90.371 46.855,-140.566 131.742,-140.566 20.387,0 42.297,3.945 90.977,16.425 l 0,0"
         style="fill:#f1471d;fill-opacity:1;fill-rule:evenodd;stroke:none"
         id="path18"
         inkscape:connector-curvature="0" /><path
         d="m 1069.77,133.945 0,183.477 c 0,41.683 -5.47,63.891 -19.77,81.234 -14,17.043 -41.08,28.297 -68.766,28.297 -23.125,0 -39.554,-3.957 -93.105,-23.73 l 0,167.648 -48.07,0 0,-436.926 48.07,0 0,246.762 c 24.039,6.086 46.25,9.129 66.637,9.129 51.114,0 66.934,-19.172 66.934,-82.457 l 0,-173.434 48.07,0 0,0"
         style="fill:#f1471d;fill-opacity:1;fill-rule:evenodd;stroke:none"
         id="path20"
         inkscape:connector-curvature="0" /><path
         d="m 1301.92,214.59 c 0,32.246 -13.69,53.848 -43.5,69.668 l -53.56,28.597 c -26.77,13.692 -34.99,23.739 -34.99,41.989 0,24.039 17.35,37.121 51.73,37.121 20.99,0 42.59,-3.348 67.24,-10.652 l 0,30.429 c -35.6,10.645 -54.16,13.996 -73.33,13.996 -54.76,0 -90.97,-31.035 -90.97,-78.195 0,-32.859 16.43,-55.984 53.25,-74.535 l 52.94,-27.403 c 17.64,-9.414 25.55,-20.683 25.55,-37.714 0,-28.614 -19.77,-44.434 -57.2,-44.434 -25.86,0 -46.85,2.754 -79.1,11.27 l 0,-31.036 c 35.6,-10.351 61.15,-14.921 79.71,-14.921 62.07,0 102.23,33.476 102.23,85.82 l 0,0"
         style="fill:#f1471d;fill-opacity:1;fill-rule:evenodd;stroke:none"
         id="path22"
         inkscape:connector-curvature="0" /><path
         d="m 1556.59,145.82 0,27.071 c -18.87,-4.551 -46.56,-7.305 -65.11,-7.305 -72.72,0 -104.97,33.789 -104.97,110.156 0,77.887 32.86,115.617 100.4,115.617 25.56,0 44.12,-2.129 69.68,-8.523 l 0,27.687 c -33.47,10.954 -53.86,14.911 -75.15,14.911 -93.11,0 -147.57,-57.2 -147.57,-155.473 0,-90.371 46.86,-140.566 131.75,-140.566 20.38,0 42.29,3.945 90.97,16.425 l 0,0"
         style="fill:#f1471d;fill-opacity:1;fill-rule:evenodd;stroke:none"
         id="path24"
         inkscape:connector-curvature="0" /><path
         d="m 1824.64,133.945 0,183.477 c 0,41.683 -5.48,63.891 -19.78,81.234 -13.99,17.043 -41.07,28.297 -68.76,28.297 -23.12,0 -39.55,-3.957 -93.1,-23.73 l 0,167.648 -48.07,0 0,-436.926 48.07,0 0,246.762 c 24.03,6.086 46.24,9.129 66.63,9.129 51.12,0 66.94,-19.172 66.94,-82.457 l 0,-173.434 48.07,0 0,0"
         style="fill:#f1471d;fill-opacity:1;fill-rule:evenodd;stroke:none"
         id="path26"
         inkscape:connector-curvature="0" /><path
         d="m 2118.25,133.945 0,286.922 -48.07,0 0,-246.746 c -23.73,-6.406 -46.25,-9.141 -66.64,-9.141 -51.11,0 -66.93,19.18 -66.93,82.461 l 0,173.426 -48.07,0 0,-183.465 c 0,-41.992 5.17,-63.886 19.77,-81.543 13.99,-16.738 41.07,-27.988 68.77,-27.988 24.33,0 43.51,4.863 94.32,24.024 l 0,-17.95 46.85,0 0,0"
         style="fill:#f1471d;fill-opacity:1;fill-rule:evenodd;stroke:none"
         id="path28"
         inkscape:connector-curvature="0" /><path
         d="m 2235.08,133.945 0,436.926 -47.76,0 0,-436.926 47.76,0 0,0"
         style="fill:#f1471d;fill-opacity:1;fill-rule:evenodd;stroke:none"
         id="path30"
         inkscape:connector-curvature="0" /><path
         d="m 3408.31,81.543 -51.73,0 0,-29.5117 51.73,0 0,-52.0313 29.51,0 0,52.0313 52.02,0 0,29.5117 -52.02,0 0,52.031 -29.51,0 0,-52.031"
         style="fill:#f1471d;fill-opacity:1;fill-rule:evenodd;stroke:none"
         id="path32"
         inkscape:connector-curvature="0" /><path
         d="m 2571.6,218.867 c 0,35.293 -14.61,58.731 -48.99,74.848 l -48.68,23.734 c -24.95,11.867 -33.47,21.606 -33.47,36.207 0,21.602 15.52,31.649 47.46,31.649 21.61,0 46.86,-3.961 69.98,-10.047 l 0,38.336 c -38.33,11.261 -59.63,15.215 -81.84,15.215 -60.24,0 -98.58,-32.25 -98.58,-83.672 0,-35.598 16.73,-59.336 55.68,-78.496 l 48.07,-23.125 c 17.95,-8.828 25.86,-19.161 25.86,-33.77 0,-24.961 -16.73,-36.816 -51.11,-36.816 -26.78,0 -49.9,3.34 -81.55,11.25 l 0,-39.551 c 41.39,-11.25 63.29,-15.215 89.76,-15.215 65.72,0 107.41,35 107.41,89.453 l 0,0"
         style="fill:#231f20;fill-opacity:1;fill-rule:evenodd;stroke:none"
         id="path34"
         inkscape:connector-curvature="0" /><path
         d="m 3047.15,134.59 0,186.816 c 0,78.5 -26.77,108.617 -95.54,108.617 -21.9,0 -42.28,-4.558 -100.1,-23.73 -1.52,0 -3.95,-1.219 -6.7,-1.824 -16.42,17.035 -38.33,25.554 -66.01,25.554 -23.74,0 -44.73,-5.168 -97.06,-24.339 l 0,17.953 -65.42,0 0,-289.047 66.94,0 0,238.844 c 18.25,3.953 40.77,6.695 57.2,6.695 42.9,0 57.5,-14.606 57.5,-56.895 l 0,-188.644 67.25,0 0,202.637 c 0,15.211 -0.61,20.386 -5.18,34.378 23.12,5.782 43.51,8.524 60.55,8.524 44.42,0 59.33,-16.734 59.33,-67.242 l 0,-178.297 67.24,0 0,0"
         style="fill:#231f20;fill-opacity:1;fill-rule:evenodd;stroke:none"
         id="path36"
         inkscape:connector-curvature="0" /><path
         d="m 3289.35,184.18 c -17.05,-3.34 -30.43,-4.864 -45.65,-4.864 -53.24,0 -83.67,35.606 -83.67,97.676 0,67.539 32.86,106.176 90.98,106.176 13.08,0 27.68,-1.824 38.34,-3.652 l 0,-195.336 z m 67.23,-49.59 0,436.914 -67.23,0 0,-157.91 c -22.52,9.433 -41.09,13.39 -62.07,13.39 -79.12,0 -137.84,-66.632 -137.84,-155.773 0,-87.031 46.25,-142.402 118.06,-142.402 19.16,0 37.72,5.175 83.06,23.418 l 0,-17.637 66.02,0 0,0"
         style="fill:#231f20;fill-opacity:1;fill-rule:evenodd;stroke:none"
         id="path38"
         inkscape:connector-curvature="0" /><path
         d="m 2242.39,81.3477 132.35,0 0,-27.9883 -132.35,0 0,27.9883"
         style="fill:#231f20;fill-opacity:1;fill-rule:evenodd;stroke:none"
         id="path40"
         inkscape:connector-curvature="0" /><path
         d="m 5498.86,305.918 -137.03,0 c 0.55,58.082 25.93,89.664 72.17,89.664 46.24,0 64.86,-25.379 64.86,-89.664 l 0,0 z m 53.01,-28.77 c -0.57,36.098 -2.26,53.016 -7.34,70.5 -13.53,51.317 -50.18,77.821 -106.01,77.821 -80.08,0 -128.58,-58.649 -128.58,-156.778 0,-90.781 46.24,-139.941 131.4,-139.941 20.29,0 48.49,4.512 97.56,15.879 l 0,27.07 c -33.27,-4.511 -54.14,-6.191 -73.31,-6.191 -70.49,0 -102.07,29.883 -103.21,97.558 l 0,10.137 c 0,0.567 0,2.266 -0.55,3.945 l 190.04,0 0,0 z m -291.55,-143.222 0,183.269 c 0,41.731 -5.64,63.723 -19.73,81.203 -14.11,16.918 -41.18,28.2 -68.8,28.2 -23.13,0 -39.48,-3.95 -93.05,-23.688 l 0,167.481 -47.93,0 0,-436.465 47.93,0 0,246.429 c 24.25,6.204 46.24,9.02 66.54,9.02 51.32,0 67.11,-19.172 67.11,-82.328 l 0,-173.121 47.93,0 0,0 z m -298.31,0 0,286.465 -47.93,0 0,-246.426 c -23.69,-6.211 -46.24,-9.024 -66.54,-9.024 -51.32,0 -67.11,19.18 -67.11,82.325 l 0,173.125 -47.93,0 0,-183.262 c 0,-41.738 5.07,-63.731 19.74,-81.211 14.09,-16.914 41.16,-28.281 68.8,-28.281 24.24,0 43.41,5.058 94.17,24.336 l 0,-18.047 46.8,0 0,0 z m -259.4,237.406 0,45.676 c -9.02,5.078 -18.61,7.332 -30.45,7.332 -11.28,0 -32.14,-7.332 -73.3,-25.375 l 0,21.426 -46.82,0 0,-286.465 47.94,0 0,243.609 c 14.66,3.383 32.14,5.641 45.11,5.641 23.12,0 42.29,-3.953 57.52,-11.844 l 0,0 z M 4500.17,214.57 c 0,32.129 -13.54,53.575 -43.42,69.356 l -53.58,28.762 c -26.5,13.527 -34.96,23.679 -34.96,41.726 0,24.254 17.48,37.223 51.88,37.223 20.86,0 42.29,-3.391 67.11,-10.719 l 0,30.453 c -35.53,10.715 -54.14,14.098 -73.31,14.098 -54.7,0 -90.79,-31.02 -90.79,-78.383 0,-32.707 16.35,-55.836 53,-74.449 l 53.01,-27.051 c 17.48,-9.59 25.37,-20.879 25.37,-37.793 0,-28.75 -19.73,-44.551 -56.95,-44.551 -25.94,0 -46.8,2.832 -78.95,11.289 l 0,-31.015 c 35.53,-10.254 60.91,-14.766 79.52,-14.766 62.03,0 102.07,33.379 102.07,85.82 l 0,0 z m -232.9,-80.644 0,436.465 -47.93,0 0,-436.465 47.93,0 0,0 z m -78.38,237.406 0,45.676 c -9.03,5.078 -18.62,7.332 -30.46,7.332 -11.27,0 -32.14,-7.332 -73.3,-25.375 l 0,21.426 -46.81,0 0,-286.465 47.93,0 0,243.609 c 14.67,3.383 32.15,5.641 45.12,5.641 23.11,0 42.28,-3.953 57.52,-11.844 l 0,0 z M 3922.71,172.266 c -19.73,-4.512 -35.51,-6.192 -52.44,-6.192 -40.6,0 -61.46,16.348 -61.46,48.496 0,29.317 16.91,45.664 52.44,50.176 18.61,2.832 22.56,2.832 61.46,4.512 l 0,-96.992 z m 47.94,-38.34 0,193.984 c 0,42.293 -4.52,59.207 -18.61,74.434 -14.1,15.23 -37.22,23.125 -66.54,23.125 -21.99,0 -47.37,-4.512 -102.63,-18.051 l 0,-28.195 c 33.27,5.644 62.02,9.023 85.71,9.023 38.91,0 54.13,-14.66 54.13,-52.441 l 0,-40.039 c -41.72,0 -54.69,-0.563 -81.76,-3.383 -55.27,-5.645 -83.46,-33.262 -83.46,-81.758 0,-48.496 33.84,-80.742 85.15,-80.742 18.05,0 18.61,0 76.7,19.824 1.12,0.566 2.82,1.133 5.06,1.699 l 0,-17.48 46.25,0 0,0 z m -223.87,0 -125.19,164.66 125.19,121.805 -57.52,0 -121.24,-127.442 116.16,-159.023 62.6,0 0,0 z m -184.96,0 0,436.465 -47.94,0 0,-436.465 47.94,0 0,0"
         style="fill:#f1471d;fill-opacity:1;fill-rule:evenodd;stroke:none"
         id="path42"
         inkscape:connector-curvature="0" /></g></g></svg>