<?xml version="1.0" encoding="UTF-8" standalone="no"?>
<!-- Created with Inkscape (http://www.inkscape.org/) -->

<svg
   xmlns:dc="http://purl.org/dc/elements/1.1/"
   xmlns:cc="http://creativecommons.org/ns#"
   xmlns:rdf="http://www.w3.org/1999/02/22-rdf-syntax-ns#"
   xmlns:svg="http://www.w3.org/2000/svg"
   xmlns="http://www.w3.org/2000/svg"
   xmlns:sodipodi="http://sodipodi.sourceforge.net/DTD/sodipodi-0.dtd"
   xmlns:inkscape="http://www.inkscape.org/namespaces/inkscape"
   id="svg2"
   version="1.1"
   inkscape:version="0.48.4 r9939"
   xml:space="preserve"
   sodipodi:docname="SMD-Logo.svg"><metadata
     id="metadata8"><rdf:RDF><cc:Work
         rdf:about=""><dc:format>image/svg+xml</dc:format><dc:type
           rdf:resource="http://purl.org/dc/dcmitype/StillImage" /><dc:title></dc:title></cc:Work></rdf:RDF></metadata><defs
     id="defs6"><filter
       id="filter3766"
       inkscape:label="Desaturate"
       x="0"
       y="0"
       width="1"
       height="1"
       inkscape:menu="Color"
       inkscape:menu-tooltip="Render in shades of gray by reducing saturation to zero"
       color-interpolation-filters="sRGB"><feColorMatrix
         id="feColorMatrix3768"
         type="saturate"
         values="0" /></filter><filter
       id="filter3770"
       inkscape:label="Desaturate"
       x="0"
       y="0"
       width="1"
       height="1"
       inkscape:menu="Color"
       inkscape:menu-tooltip="Render in shades of gray by reducing saturation to zero"
       color-interpolation-filters="sRGB"><feColorMatrix
         id="feColorMatrix3772"
         type="saturate"
         values="0" /></filter><filter
       id="filter3774"
       inkscape:label="Desaturate"
       x="0"
       y="0"
       width="1"
       height="1"
       inkscape:menu="Color"
       inkscape:menu-tooltip="Render in shades of gray by reducing saturation to zero"
       color-interpolation-filters="sRGB"><feColorMatrix
         id="feColorMatrix3776"
         type="saturate"
         values="0" /></filter><filter
       id="filter3778"
       inkscape:label="Desaturate"
       x="0"
       y="0"
       width="1"
       height="1"
       inkscape:menu="Color"
       inkscape:menu-tooltip="Render in shades of gray by reducing saturation to zero"
       color-interpolation-filters="sRGB"><feColorMatrix
         id="feColorMatrix3780"
         type="saturate"
         values="0" /></filter><filter
       id="filter3782"
       inkscape:label="Desaturate"
       x="0"
       y="0"
       width="1"
       height="1"
       inkscape:menu="Color"
       inkscape:menu-tooltip="Render in shades of gray by reducing saturation to zero"
       color-interpolation-filters="sRGB"><feColorMatrix
         id="feColorMatrix3784"
         type="saturate"
         values="0" /></filter><filter
       id="filter3786"
       inkscape:label="Desaturate"
       x="0"
       y="0"
       width="1"
       height="1"
       inkscape:menu="Color"
       inkscape:menu-tooltip="Render in shades of gray by reducing saturation to zero"
       color-interpolation-filters="sRGB"><feColorMatrix
         id="feColorMatrix3788"
         type="saturate"
         values="0" /></filter><filter
       id="filter3790"
       inkscape:label="Desaturate"
       x="0"
       y="0"
       width="1"
       height="1"
       inkscape:menu="Color"
       inkscape:menu-tooltip="Render in shades of gray by reducing saturation to zero"
       color-interpolation-filters="sRGB"><feColorMatrix
         id="feColorMatrix3792"
         type="saturate"
         values="0" /></filter><filter
       id="filter3794"
       inkscape:label="Desaturate"
       x="0"
       y="0"
       width="1"
       height="1"
       inkscape:menu="Color"
       inkscape:menu-tooltip="Render in shades of gray by reducing saturation to zero"
       color-interpolation-filters="sRGB"><feColorMatrix
         id="feColorMatrix3796"
         type="saturate"
         values="0" /></filter><filter
       id="filter3798"
       inkscape:label="Desaturate"
       x="0"
       y="0"
       width="1"
       height="1"
       inkscape:menu="Color"
       inkscape:menu-tooltip="Render in shades of gray by reducing saturation to zero"
       color-interpolation-filters="sRGB"><feColorMatrix
         id="feColorMatrix3800"
         type="saturate"
         values="0" /></filter><filter
       id="filter3802"
       inkscape:label="Desaturate"
       x="0"
       y="0"
       width="1"
       height="1"
       inkscape:menu="Color"
       inkscape:menu-tooltip="Render in shades of gray by reducing saturation to zero"
       color-interpolation-filters="sRGB"><feColorMatrix
         id="feColorMatrix3804"
         type="saturate"
         values="0" /></filter><filter
       id="filter3806"
       inkscape:label="Desaturate"
       x="0"
       y="0"
       width="1"
       height="1"
       inkscape:menu="Color"
       inkscape:menu-tooltip="Render in shades of gray by reducing saturation to zero"
       color-interpolation-filters="sRGB"><feColorMatrix
         id="feColorMatrix3808"
         type="saturate"
         values="0" /></filter><filter
       id="filter3810"
       inkscape:label="Desaturate"
       x="0"
       y="0"
       width="1"
       height="1"
       inkscape:menu="Color"
       inkscape:menu-tooltip="Render in shades of gray by reducing saturation to zero"
       color-interpolation-filters="sRGB"><feColorMatrix
         id="feColorMatrix3812"
         type="saturate"
         values="0" /></filter><filter
       id="filter3814"
       inkscape:label="Desaturate"
       x="0"
       y="0"
       width="1"
       height="1"
       inkscape:menu="Color"
       inkscape:menu-tooltip="Render in shades of gray by reducing saturation to zero"
       color-interpolation-filters="sRGB"><feColorMatrix
         id="feColorMatrix3816"
         type="saturate"
         values="0" /></filter><filter
       id="filter3818"
       inkscape:label="Desaturate"
       x="0"
       y="0"
       width="1"
       height="1"
       inkscape:menu="Color"
       inkscape:menu-tooltip="Render in shades of gray by reducing saturation to zero"
       color-interpolation-filters="sRGB"><feColorMatrix
         id="feColorMatrix3820"
         type="saturate"
         values="0" /></filter><filter
       id="filter3822"
       inkscape:label="Desaturate"
       x="0"
       y="0"
       width="1"
       height="1"
       inkscape:menu="Color"
       inkscape:menu-tooltip="Render in shades of gray by reducing saturation to zero"
       color-interpolation-filters="sRGB"><feColorMatrix
         id="feColorMatrix3824"
         type="saturate"
         values="0" /></filter></defs><sodipodi:namedview
     pagecolor="#ffffff"
     bordercolor="#666666"
     borderopacity="1"
     objecttolerance="10"
     gridtolerance="10"
     guidetolerance="10"
     inkscape:pageopacity="0"
     inkscape:pageshadow="2"
     inkscape:window-width="1326"
     inkscape:window-height="887"
     id="namedview4"
     showgrid="false"
     inkscape:zoom="2"
     inkscape:cx="97.809935"
     inkscape:cy="0.74341556"
     inkscape:window-x="1735"
     inkscape:window-y="101"
     inkscape:window-maximized="0"
     inkscape:current-layer="g12"
     showborder="true"
     fit-margin-top="0"
     fit-margin-left="0"
     fit-margin-right="0"
     fit-margin-bottom="0" /><g
     id="g10"
     inkscape:groupmode="layer"
     inkscape:label="ink_ext_XXXXXX"
     transform="matrix(1.25,0,0,-1.25,-196.41728,51.219)"><g
       id="g12"
       transform="scale(0.1,0.1)"><path
         d="m 1671.0196,219.87646 0,79.61851 c 0,18.08803 -2.5051,27.72503 -8.579,35.2509 -6.0752,7.39568 -17.8255,12.27928 -29.8401,12.27928 -10.0349,0 -17.1646,-1.71712 -40.5331,-10.29746 l 0,72.74962 -20.7292,0 0,-189.60085 20.7292,0 0,107.08057 c 10.5622,2.64098 20.2004,3.96146 28.913,3.96146 22.3142,0 29.1796,-8.31955 29.1796,-35.78161 l 0,-75.26042 20.8596,0 0,0"
         style="fill:#b1342b;fill-opacity:1;fill-rule:evenodd;stroke:none;filter:url(#filter3766)"
         id="path14"
         inkscape:connector-curvature="0" /><path
         d="m 1785.4942,283.12057 c 0,-33.80023 -12.81,-53.20919 -34.8578,-53.20919 -23.7653,0 -35.5156,17.69705 -35.5156,52.94622 0,32.08486 13.2014,51.49165 34.8543,51.49165 23.238,0 35.5191,-17.95612 35.5191,-51.22868 l 0,0 z m 22.7073,0.6609 c 0,39.2141 -21.7835,63.24368 -57.0383,63.24368 -36.9663,0 -58.8856,-24.95345 -58.8856,-67.60003 0,-38.29198 22.05,-62.18443 57.1702,-62.18443 36.7038,0 58.7537,24.95171 58.7537,66.54078 l 0,0"
         style="fill:#b1342b;fill-opacity:1;fill-rule:evenodd;stroke:none;filter:url(#filter3770)"
         id="path16"
         inkscape:connector-curvature="0" /><path
         d="m 1919.2401,225.02953 0,11.74726 c -8.1877,-1.97487 -20.2005,-3.16995 -28.2558,-3.16995 -31.5554,0 -45.5501,14.66249 -45.5501,47.80139 0,33.7985 14.2607,50.17116 43.5705,50.17116 11.0894,0 19.1425,-0.92387 30.2354,-3.6985 l 0,12.01458 c -14.5237,4.75341 -23.3704,6.47052 -32.6121,6.47052 -40.4005,0 -64.0352,-24.82153 -64.0352,-67.46638 0,-39.21584 20.3324,-60.99759 57.1685,-60.99759 8.8468,0 18.3544,1.7119 39.4788,7.12751 l 0,0"
         style="fill:#b1342b;fill-opacity:1;fill-rule:evenodd;stroke:none;filter:url(#filter3774)"
         id="path18"
         inkscape:connector-curvature="0" /><path
         d="m 2035.5571,219.87646 0,79.61851 c 0,18.08803 -2.3736,27.72503 -8.579,35.2509 -6.0752,7.39568 -17.8264,12.27928 -29.8405,12.27928 -10.035,0 -17.1642,-1.71712 -40.4023,-10.29746 l 0,72.74962 -20.8596,0 0,-189.60085 20.8596,0 0,107.08057 c 10.4316,2.64098 20.0699,3.96146 28.9167,3.96146 22.1805,0 29.0455,-8.31955 29.0455,-35.78161 l 0,-75.26042 20.8596,0 0,0"
         style="fill:#b1342b;fill-opacity:1;fill-rule:evenodd;stroke:none;filter:url(#filter3778)"
         id="path20"
         inkscape:connector-curvature="0" /><path
         d="m 2136.2969,254.87177 c 0,13.99292 -5.9407,23.36695 -18.8765,30.23192 l -23.242,12.40946 c -11.6166,5.94154 -15.1836,10.30137 -15.1836,18.22082 0,10.43155 7.5289,16.10839 22.4478,16.10839 9.1085,0 18.4817,-1.45284 29.1784,-4.62236 l 0,13.20444 c -15.4484,4.61932 -23.5024,6.07347 -31.8211,6.07347 -23.7627,0 -39.4757,-13.46742 -39.4757,-33.93216 0,-14.25892 7.1296,-24.29384 23.1074,-32.34392 l 22.9729,-11.89133 c 7.6548,-4.08514 11.0873,-8.97524 11.0873,-16.36571 0,-12.41684 -8.5791,-19.28181 -24.8215,-19.28181 -11.2218,0 -20.3303,1.19507 -34.3249,4.89053 l 0,-13.46785 c 15.4483,-4.49174 26.5356,-6.47486 34.5896,-6.47486 26.9348,0 44.3619,14.52667 44.3619,37.24097 l 0,0"
         style="fill:#b1342b;fill-opacity:1;fill-rule:evenodd;stroke:none;filter:url(#filter3782)"
         id="path22"
         inkscape:connector-curvature="0" /><path
         d="m 2246.8091,225.02953 0,11.74726 c -8.1885,-1.97487 -20.2044,-3.16995 -28.254,-3.16995 -31.5563,0 -45.551,14.66249 -45.551,47.80139 0,33.7985 14.2594,50.17116 43.5679,50.17116 11.0916,0 19.1455,-0.92387 30.2371,-3.6985 l 0,12.01458 c -14.524,4.75341 -23.3721,6.47052 -32.6108,6.47052 -40.4044,0 -64.0369,-24.82153 -64.0369,-67.46638 0,-39.21584 20.3345,-60.99759 57.1719,-60.99759 8.8438,0 18.3515,1.7119 39.4758,7.12751 l 0,0"
         style="fill:#b1342b;fill-opacity:1;fill-rule:evenodd;stroke:none;filter:url(#filter3786)"
         id="path24"
         inkscape:connector-curvature="0" /><path
         d="m 2363.1275,219.87646 0,79.61851 c 0,18.08803 -2.378,27.72503 -8.5834,35.2509 -6.0709,7.39568 -17.8221,12.27928 -29.8379,12.27928 -10.0328,0 -17.1625,-1.71712 -40.4001,-10.29746 l 0,72.74962 -20.8596,0 0,-189.60085 20.8596,0 0,107.08057 c 10.4276,2.64098 20.0655,3.96146 28.9136,3.96146 22.1832,0 29.0481,-8.31955 29.0481,-35.78161 l 0,-75.26042 20.8597,0 0,0"
         style="fill:#b1342b;fill-opacity:1;fill-rule:evenodd;stroke:none;filter:url(#filter3790)"
         id="path26"
         inkscape:connector-curvature="0" /><path
         d="m 2490.5374,219.87646 0,124.50771 -20.8596,0 0,-107.07363 c -10.2975,-2.77984 -20.0699,-3.96667 -28.918,-3.96667 -22.1788,0 -29.0438,8.32302 -29.0438,35.78335 l 0,75.25695 -20.8596,0 0,-79.6133 c 0,-18.22212 2.2435,-27.72287 8.579,-35.38499 6.0709,-7.26333 17.8221,-12.14519 29.8423,-12.14519 10.5578,0 18.8808,2.11026 40.9295,10.42504 l 0,-7.78927 20.3302,0 0,0"
         style="fill:#b1342b;fill-opacity:1;fill-rule:evenodd;stroke:none;filter:url(#filter3794)"
         id="path28"
         inkscape:connector-curvature="0" /><path
         d="m 2541.2349,219.87646 0,189.60085 -20.7251,0 0,-189.60085 20.7251,0 0,0"
         style="fill:#b1342b;fill-opacity:1;fill-rule:evenodd;stroke:none;filter:url(#filter3798)"
         id="path30"
         inkscape:connector-curvature="0" /><path
         d="m 3050.3495,197.13699 -22.4478,0 0,-12.80639 22.4478,0 0,-22.5786 12.8057,0 0,22.5786 22.5737,0 0,12.80639 -22.5737,0 0,22.57847 -12.8057,0 0,-22.57847"
         style="fill:#b1342b;fill-opacity:1;fill-rule:evenodd;stroke:none;filter:url(#filter3802)"
         id="path32"
         inkscape:connector-curvature="0" /><path
         d="m 2687.2653,256.72774 c 0,15.31514 -6.3399,25.48589 -21.2588,32.47975 l -21.1244,10.29919 c -10.8268,5.1496 -14.524,9.37577 -14.524,15.71177 0,9.37403 6.7348,13.73385 20.5949,13.73385 9.3775,0 20.3345,-1.71885 30.3673,-4.35982 l 0,16.63563 c -16.633,4.88662 -25.876,6.60243 -35.5139,6.60243 -26.1407,0 -42.778,-13.99465 -42.778,-36.30885 0,-15.44749 7.2598,-25.74843 24.1619,-34.06277 l 20.8596,-10.03492 c 7.7893,-3.83085 11.2218,-8.31478 11.2218,-14.65425 0,-10.83164 -7.2599,-15.97604 -22.1788,-15.97604 -11.621,0 -21.6538,1.44937 -35.3881,4.88186 l 0,-17.16287 c 17.9609,-4.88185 27.4643,-6.60244 38.9507,-6.60244 28.5187,0 46.6098,15.188 46.6098,38.81748 l 0,0"
         style="fill:#231f20;fill-opacity:1;fill-rule:evenodd;stroke:none;filter:url(#filter3806)"
         id="path34"
         inkscape:connector-curvature="0" /><path
         d="m 2893.6268,220.15635 0,81.06744 c 0,34.06451 -11.6167,47.13356 -41.4589,47.13356 -9.5034,0 -18.3471,-1.97791 -43.4377,-10.29746 -0.6596,0 -1.7141,-0.52898 -2.9074,-0.79151 -7.1253,7.39221 -16.633,11.08897 -28.6446,11.08897 -10.3018,0 -19.4102,-2.24262 -42.1184,-10.56173 l 0,7.79057 -28.3886,0 0,-125.42984 29.0482,0 0,103.64462 c 7.9194,1.71537 17.6918,2.90524 24.8215,2.90524 18.6161,0 24.9517,-6.33817 24.9517,-24.68917 l 0,-81.86069 29.1826,0 0,87.93285 c 0,6.6007 -0.2647,8.84636 -2.2478,14.91808 10.0328,2.50906 18.8809,3.69893 26.2752,3.69893 19.2758,0 25.7459,-7.2616 25.7459,-29.17917 l 0,-77.37069 29.1783,0 0,0"
         style="fill:#231f20;fill-opacity:1;fill-rule:evenodd;stroke:none;filter:url(#filter3810)"
         id="path36"
         inkscape:connector-curvature="0" /><path
         d="m 2998.7277,241.67557 c -7.3987,-1.44937 -13.2049,-2.1107 -19.8095,-2.1107 -23.1031,0 -36.308,15.45097 -36.308,42.38579 0,29.30806 14.2594,46.0743 39.4801,46.0743 5.676,0 12.0116,-0.79151 16.6374,-1.58475 l 0,-84.76464 z m 29.174,-21.51922 0,189.59565 -29.174,0 0,-68.52389 c -9.7724,4.09338 -17.8307,5.81049 -26.9348,5.81049 -34.3336,0 -59.8147,-28.91447 -59.8147,-67.59656 0,-37.76647 20.0699,-61.79431 51.2313,-61.79431 8.3143,0 16.3683,2.24565 36.0433,10.16207 l 0,-7.65345 28.6489,0 0,0"
         style="fill:#231f20;fill-opacity:1;fill-rule:evenodd;stroke:none;filter:url(#filter3814)"
         id="path38"
         inkscape:connector-curvature="0" /><path
         d="m 2544.407,197.05224 57.4324,0 0,-12.14532 -57.4324,0 0,12.14532"
         style="fill:#231f20;fill-opacity:1;fill-rule:evenodd;stroke:none;filter:url(#filter3818)"
         id="path40"
         inkscape:connector-curvature="0" /><path
         d="m 3957.5285,294.50289 -59.4632,0 c 0.2387,25.20426 11.2521,38.90904 31.3177,38.90904 20.0655,0 28.1455,-11.01303 28.1455,-38.90904 l 0,0 z m 23.0033,-12.48453 c -0.2474,15.66446 -0.9807,23.0059 -3.1852,30.59296 -5.8712,22.26864 -21.7752,33.76985 -46.0022,33.76985 -34.7502,0 -55.7964,-25.4503 -55.7964,-68.03267 0,-39.39375 20.0655,-60.72637 57.0201,-60.72637 8.8047,0 21.0419,1.95794 42.3354,6.89057 l 0,11.74683 c -14.4372,-1.95751 -23.4936,-2.68654 -31.8123,-2.68654 -30.5886,0 -44.2925,12.96751 -44.7872,42.33459 l 0,4.39887 c 0,0.24605 0,0.98332 -0.2387,1.71191 l 82.4665,0 0,0 z m -126.516,-62.15015 0,79.52825 c 0,18.10886 -2.4475,27.65213 -8.5617,35.23745 -6.1229,7.34144 -17.8698,12.23719 -29.8553,12.23719 -10.0371,0 -17.132,-1.71408 -40.3783,-10.27924 l 0,72.67716 -20.7989,0 0,-189.40081 20.7989,0 0,106.93607 c 10.5231,2.69218 20.0655,3.91417 28.8745,3.91417 22.27,0 29.1219,-8.31955 29.1219,-35.72564 l 0,-75.1246 20.7989,0 0,0 z m -129.4495,0 0,124.3094 -20.7988,0 0,-106.93476 c -10.2801,-2.69522 -20.0656,-3.9159 -28.8746,-3.9159 -22.2699,0 -29.1219,8.32302 -29.1219,35.72433 l 0,75.12633 -20.7989,0 0,-79.52521 c 0,-18.1119 2.2001,-27.6556 8.5661,-35.24092 6.1142,-7.33971 17.861,-12.27233 29.8552,-12.27233 10.5188,0 18.8375,2.19488 40.8644,10.56043 l 0,-7.83137 20.3085,0 0,0 z m -112.5647,103.02061 0,19.82077 c -3.9142,2.20356 -8.0757,3.18166 -13.2136,3.18166 -4.8948,0 -13.9469,-3.18166 -31.808,-11.01129 l 0,9.29765 -20.3172,0 0,-124.3094 20.8032,0 0,105.71235 c 6.3616,1.46803 13.947,2.44788 19.5752,2.44788 10.0328,0 18.3514,-1.71538 24.9604,-5.13962 l 0,0 z m -87.8474,-68.02573 c 0,13.94214 -5.8756,23.24848 -18.8418,30.09653 l -23.2506,12.48106 c -11.4995,5.86994 -15.1707,10.27533 -15.1707,18.1067 0,10.52484 7.5854,16.15264 22.513,16.15264 9.052,0 18.3514,-1.47149 29.1219,-4.65143 l 0,13.21486 c -15.418,4.6497 -23.4937,6.11772 -31.8124,6.11772 -23.7366,0 -39.3976,-13.4609 -39.3976,-34.01373 0,-14.19296 7.095,-24.22962 22.999,-32.3066 l 23.0033,-11.73858 c 7.5853,-4.16151 11.0091,-9.06029 11.0091,-16.4 0,-12.47585 -8.5617,-19.33258 -24.7131,-19.33258 -11.2564,0 -20.3085,1.22892 -34.2597,4.89878 l 0,-13.45874 c 15.418,-4.44965 26.4314,-6.40759 34.5071,-6.40759 26.9175,0 44.2925,14.48457 44.2925,37.24096 l 0,0 z m -101.0652,-34.99488 0,189.40081 -20.7989,0 0,-189.40081 20.7989,0 0,0 z m -34.0125,103.02061 0,19.82077 c -3.9185,2.20356 -8.08,3.18166 -13.2179,3.18166 -4.8905,0 -13.9469,-3.18166 -31.808,-11.01129 l 0,9.29765 -20.3128,0 0,-124.3094 20.7989,0 0,105.71235 c 6.3659,1.46803 13.9512,2.44788 19.5795,2.44788 10.0284,0 18.347,-1.71538 24.9603,-5.13962 l 0,0 z m -115.5068,-86.38324 c -8.5617,-1.95795 -15.4093,-2.68698 -22.756,-2.68698 -17.6181,0 -26.6701,7.0941 -26.6701,21.04449 0,12.7219 7.338,19.81556 22.7559,21.77351 8.0757,1.22893 9.7898,1.22893 26.6702,1.95795 l 0,-42.08897 z m 20.8032,-16.63737 0,84.17795 c 0,18.35274 -1.9614,25.69244 -8.0757,32.30009 -6.1186,6.60895 -16.1513,10.03492 -28.8745,10.03492 -9.5424,0 -20.5559,-1.95794 -44.5356,-7.8331 l 0,-12.23501 c 14.4373,2.44917 26.9131,3.91547 37.1932,3.91547 16.8848,0 23.4894,-6.36161 23.4894,-22.7564 l 0,-17.37463 c -18.1041,0 -23.7324,-0.24431 -35.4792,-1.46803 -23.984,-2.4496 -36.2169,-14.4338 -36.2169,-35.47828 0,-21.04449 14.6847,-35.03741 36.9503,-35.03741 7.8326,0 8.0756,0 33.2834,8.60248 0.486,0.24561 1.2237,0.49166 2.1957,0.73727 l 0,-7.58532 20.0699,0 0,0 z m -97.1468,0 -54.3253,71.45301 54.3253,52.85639 -24.9604,0 -52.6112,-55.30252 50.4068,-69.00688 27.1648,0 0,0 z m -80.262,0 0,189.40081 -20.8032,0 0,-189.40081 20.8032,0 0,0"
         style="fill:#b1342b;fill-opacity:1;fill-rule:evenodd;stroke:none;filter:url(#filter3822)"
         id="path42"
         inkscape:connector-curvature="0" /></g></g></svg>